<?xml version="1.0" encoding="UTF-8"?>
<svg id="Camada_1" data-name="Camada 1" xmlns="http://www.w3.org/2000/svg" viewBox="0 0 1190.55 841.89">
  <defs>
    <style>
      .cls-1 {
        fill: #ee8469;
      }

      .cls-2 {
        fill: #f07e00;
      }

      .cls-3 {
        stroke: #1b3351;
        stroke-miterlimit: 10;
        stroke-width: .5px;
      }

      .cls-3, .cls-4 {
        fill: #1a3251;
      }

      .cls-5 {
        fill: #fff;
      }

      .cls-6 {
        fill: #183151;
      }
    </style>
  </defs>
  <circle class="cls-5" cx="551.13" cy="412.39" r="289.35"/>
  <g>
    <g>
      <path class="cls-1" d="M414.87,140.04c1.31,2.76.89,4.79-1.26,6.08l-3.38,1.81c-2.93,1.39-5.22,1.85-6.89,1.4-1.66-.45-3.12-2-4.37-4.65l-18.84-39.79c-.53-1.13-.66-2.17-.39-3.12.27-.96.93-1.92,1.99-2.9,3.16-3.08,7.5-5.93,13.02-8.54,7.6-3.6,14.28-4.76,20.02-3.48,5.74,1.28,9.99,4.82,12.73,10.62,2.61,5.52,2.97,10.73,1.09,15.62-.97,2.46-2.58,4.75-4.81,6.88-2.23,2.13-5.04,3.99-8.42,5.59l-6,2.84,5.52,11.66ZM408.26,114.73c2.37-1.12,3.92-2.54,4.65-4.27.73-1.73.58-3.69-.46-5.88-1.01-2.14-2.46-3.47-4.33-4-1.87-.53-4.07-.19-6.61,1.01-1.86.88-3.17,1.6-3.93,2.17l6.2,13.09,4.48-2.12Z"/>
      <path class="cls-1" d="M455.41,108.76l3.9,13.08c.87,2.93.15,4.86-2.17,5.81l-3.62,1.27c-3.04.91-5.35,1.01-6.93.31-1.57-.7-2.78-2.45-3.62-5.26l-12.58-42.19c-.36-1.19-.33-2.24.09-3.15.41-.9,1.21-1.76,2.4-2.57,3.59-2.56,8.61-4.81,15.06-6.73,8-2.39,14.65-2.55,19.95-.48,5.3,2.06,8.86,6.17,10.69,12.32,1,3.34,1.05,6.63.16,9.85-.89,3.23-2.62,6.1-5.19,8.62l8.82,6.34c2.12,1.45,3.69,2.62,4.71,3.52,1.01.9,1.66,1.8,1.92,2.69.28.96.19,2.01-.28,3.16-.47,1.15-1.22,2.17-2.26,3.06-.96.93-2.21,1.63-3.76,2.1-2.33.69-4.31.8-5.95.31-1.64-.49-3.47-1.7-5.47-3.64l-11.13-9.85-4.75,1.42ZM457.5,95.16c2.33-.69,3.96-1.81,4.9-3.36.94-1.55,1.07-3.46.39-5.72-.69-2.33-1.94-3.84-3.74-4.54-1.8-.7-4.29-.58-7.45.37-1.73.52-3.01,1.03-3.83,1.53l4.01,13.44,5.73-1.71Z"/>
      <path class="cls-1" d="M488.79,75.58c1-3.95,2.73-7.39,5.2-10.33,2.3-2.79,5.15-5.05,8.55-6.78,3.4-1.73,7.17-2.85,11.32-3.35,4.14-.5,8.07-.32,11.79.55,3.71.87,7.05,2.38,10.01,4.53,3.1,2.26,5.6,5.19,7.51,8.79,1.91,3.6,3.15,7.72,3.71,12.35.55,4.58.33,8.84-.66,12.79-1,3.95-2.67,7.42-5,10.4-2.29,2.85-5.15,5.14-8.58,6.88-3.43,1.73-7.28,2.86-11.55,3.38-4.21.51-8.19.32-11.93-.58-3.75-.9-7.08-2.45-9.98-4.68-2.98-2.34-5.43-5.3-7.34-8.9-1.91-3.6-3.14-7.65-3.69-12.17-.56-4.64-.35-8.93.65-12.88ZM509.65,98.52c2.54,2.61,5.83,3.67,9.85,3.18,4.08-.49,7.05-2.33,8.89-5.5,1.84-3.17,2.44-7.45,1.79-12.83-.64-5.32-2.26-9.3-4.84-11.94-2.58-2.64-5.85-3.72-9.81-3.24-4.08.49-7.05,2.31-8.9,5.46-1.85,3.14-2.45,7.4-1.79,12.79.66,5.44,2.26,9.47,4.81,12.08Z"/>
      <path class="cls-1" d="M565.28,58.46c.03-2.12.59-3.51,1.66-4.18,1.07-.67,2.38-.99,3.94-.96l2.05.13c3.24.05,5.51.65,6.79,1.8,1.29,1.14,1.91,3.18,1.86,6.11l-.57,34.58c-.09,5.55-1.75,9.68-4.97,12.4-3.22,2.72-7.92,4.03-14.09,3.93-7.98-.13-11.92-2.97-11.82-8.52l.22-2.05c.34-1.99,1.64-2.96,3.88-2.93.87.01,1.43.06,1.68.12.25.07.87.11,1.87.12,2.37.04,4.11-.52,5.22-1.69,1.11-1.16,1.68-2.96,1.73-5.39l.56-33.46Z"/>
      <path class="cls-1" d="M589.24,63.38c.36-2.65,1.42-4.65,3.17-5.98,1.75-1.33,3.96-1.82,6.61-1.46l26.76,3.64c2.84.39,4.37,1.6,4.6,3.64.12,1.4.13,2.5.02,3.3-.59,4.32-2.73,6.23-6.44,5.73l-19.54-2.66-1.17,8.61,17.04,2.32c2.84.39,4.37,1.6,4.6,3.64.14,1.28.15,2.35.03,3.21-.59,4.32-2.7,6.24-6.35,5.74l-17.04-2.32-1.32,9.72,20.01,2.72c2.84.39,4.37,1.6,4.6,3.64.12,1.4.13,2.5.02,3.3-.6,4.38-2.75,6.32-6.45,5.82l-27.04-3.68c-2.66-.36-4.65-1.42-5.98-3.17-1.33-1.75-1.82-3.96-1.46-6.61l5.33-39.18Z"/>
      <path class="cls-1" d="M643.1,76.3c-2.69-.78-4.05-2.27-4.06-4.48.08-1.4.24-2.52.48-3.36.62-2.16,1.59-3.64,2.9-4.47,1.31-.82,2.86-.97,4.66-.45l35.47,10.25c2.69.78,4.04,2.27,4.06,4.48-.08,1.4-.24,2.53-.49,3.36-.62,2.16-1.59,3.64-2.9,4.47-1.31.82-2.86.97-4.66.45l-9.97-2.88-10.8,37.35c-.85,2.93-2.5,4.17-4.97,3.72l-3.73-.88c-3.11-.9-5.14-2.07-6.09-3.51-.95-1.44-1.01-3.57-.2-6.38l10.07-34.84-9.79-2.83Z"/>
      <path class="cls-1" d="M691.05,93.1c2.96-2.79,6.27-4.77,9.93-5.92,3.44-1.12,7.05-1.49,10.85-1.13,3.8.37,7.58,1.45,11.34,3.26,3.76,1.8,6.98,4.07,9.65,6.8,2.67,2.73,4.67,5.8,6.01,9.2,1.4,3.57,1.94,7.39,1.62,11.45-.32,4.06-1.49,8.2-3.51,12.41-1.99,4.16-4.47,7.64-7.43,10.43-2.96,2.8-6.23,4.82-9.8,6.08-3.46,1.17-7.11,1.57-10.93,1.19-3.83-.38-7.68-1.5-11.55-3.36-3.82-1.83-7.07-4.13-9.75-6.9-2.68-2.77-4.65-5.87-5.91-9.31-1.26-3.57-1.73-7.39-1.41-11.45.32-4.06,1.46-8.14,3.43-12.24,2.02-4.21,4.51-7.72,7.47-10.52ZM696.32,123.66c.74,3.57,2.94,6.23,6.59,7.98,3.71,1.78,7.19,1.82,10.45.14,3.26-1.69,6.06-4.97,8.4-9.86,2.31-4.83,3.09-9.05,2.34-12.66-.76-3.61-2.94-6.28-6.53-8-3.71-1.78-7.19-1.84-10.43-.18-3.25,1.66-6.04,4.93-8.38,9.82-2.37,4.95-3.18,9.2-2.44,12.77Z"/>
    </g>
    <g>
      <path class="cls-6" d="M314.02,613.58c3.51,3.7,5.89,7.25,7.14,10.66,1.25,3.41,1.26,6.41,0,8.99-4.35,8.47-10.61,19.57-18.77,33.32l-17.17,28.74c-.62.97-1.26,1.77-1.93,2.41-1.75,1.66-3.71,2.11-5.88,1.37-2.18-.75-4.57-2.5-7.18-5.25-2.87-3.02-4.45-5.64-4.76-7.84-.3-2.2.48-4.95,2.33-8.24l5.23-8.41-17.31-18.25-7.78,4.32-2.99,1.69c-3.46,1.87-6.41,1.93-8.85.16-1.16-.82-2.34-1.86-3.55-3.14-3.06-3.23-4.83-6.27-5.31-9.13-.48-2.86.32-5.28,2.4-7.26,1.28-1.21,2.35-1.97,3.2-2.27,1.26-.56,2.66-1.31,4.19-2.25,4.19-2.31,10.86-5.64,20.02-9.99l12.64-5.86,12.44-5.67,12.93-5.75c5.63-2.28,11.95.28,18.96,7.68ZM285.75,634.26c-4.77,2.1-9.32,4.37-13.65,6.82l11.86,12.5c6.36-10.25,11.26-18.41,14.7-24.48l-.57-.6-12.34,5.77Z"/>
      <path class="cls-6" d="M357.63,753.72c-2.57-.11-6.04-1.58-10.39-4.39-3.74-2.41-6.37-4.91-7.9-7.49-1.53-2.58-2.11-5.69-1.76-9.32l3.66-31.04c.22-2.73,1.22-8.8,3-18.24l-.78-.34c-4.03,7.1-9.36,15.79-15.99,26.06l-8.21,12.73c-1.16,1.79-2.47,2.98-3.95,3.57-1.48.59-3.01.48-4.59-.32l-4.7-2.7c-3.81-2.46-6.08-4.89-6.8-7.28-.72-2.39.05-5.34,2.31-8.84l34.96-54.17c1.11-1.71,2.24-2.96,3.41-3.75,1.17-.79,2.57-1.16,4.18-1.1,3.34.28,6.81,1.58,10.39,3.89,3.74,2.41,6.39,4.92,7.96,7.53,1.57,2.61,2.13,5.71,1.7,9.28l-3.54,31.12c-.22,2.73-1.22,8.81-3,18.24l.66.26c3.85-7,9.04-15.55,15.57-25.67l8.74-13.54c1.16-1.79,2.47-2.98,3.95-3.57,1.48-.59,3.01-.48,4.59.32l4.7,2.71c3.81,2.46,6.07,4.91,6.76,7.34.69,2.43-.07,5.36-2.28,8.78l-35.86,55.57c-1.96,3.04-4.22,4.49-6.8,4.38Z"/>
      <path class="cls-6" d="M401.8,699.56c.26-2.07.62-3.72,1.06-4.94,1.14-3.13,2.72-5.24,4.74-6.33,2.02-1.09,4.34-1.16,6.95-.21l51.58,18.77c3.92,1.43,5.77,3.78,5.57,7.05-.26,2.07-.61,3.72-1.06,4.94-1.14,3.13-2.72,5.24-4.74,6.33-2.02,1.09-4.34,1.16-6.95.21l-14.49-5.28-19.77,54.32c-1.55,4.26-4.13,5.94-7.74,5.02l-5.45-1.69c-4.53-1.65-7.42-3.59-8.68-5.82-1.26-2.23-1.14-5.39.35-9.49l18.44-50.66-14.23-5.18c-3.92-1.43-5.77-3.78-5.57-7.05Z"/>
      <path class="cls-6" d="M482.08,720.44c4.3-3.23,9.2-5.49,14.72-6.8,5.52-1.31,11.36-1.6,17.52-.88,6.16.73,11.78,2.37,16.84,4.92,5.06,2.55,9.36,5.9,12.88,10.05,3.69,4.35,6.28,9.46,7.78,15.33,1.5,5.87,1.85,12.25,1.03,19.15-.8,6.81-2.61,12.89-5.43,18.25-2.82,5.36-6.44,9.78-10.87,13.27-4.31,3.32-9.24,5.63-14.81,6.93-5.56,1.3-11.52,1.58-17.87.84-6.26-.74-11.94-2.41-17.04-5.01-5.1-2.61-9.37-6.02-12.79-10.25-3.49-4.42-5.99-9.57-7.49-15.43-1.5-5.87-1.86-12.16-1.07-18.87.81-6.9,2.63-13.03,5.45-18.39,2.82-5.36,6.53-9.73,11.13-13.1ZM506.17,782.04c6.07.71,10.99-.9,14.77-4.84,3.78-3.94,6.13-9.91,7.08-17.92.93-7.91,0-14.23-2.81-18.94-2.8-4.71-7.15-7.42-13.04-8.11-6.07-.71-10.99.88-14.76,4.77-3.77,3.9-6.13,9.84-7.07,17.85-.95,8.1-.05,14.48,2.71,19.14,2.76,4.66,7.13,7.35,13.12,8.05Z"/>
      <path class="cls-6" d="M641.01,792.78c-2.03,1.58-5.62,2.71-10.76,3.4-4.41.59-8.03.39-10.87-.58-2.84-.98-5.3-2.96-7.38-5.95l-17.35-26c-1.6-2.21-4.79-7.49-9.54-15.83l-.81.25c1.54,8.02,3.12,18.09,4.74,30.21l2.01,15.01c.28,2.11.05,3.87-.7,5.28-.75,1.41-1.98,2.32-3.7,2.74l-5.33.99c-4.5.6-7.8.22-9.89-1.13-2.1-1.36-3.42-4.1-3.97-8.23l-8.54-63.91c-.27-2.02-.22-3.71.16-5.07.38-1.36,1.2-2.54,2.47-3.55,2.73-1.95,6.21-3.21,10.43-3.78,4.41-.59,8.05-.4,10.94.57,2.89.97,5.32,2.96,7.32,5.96l17.49,25.98c1.6,2.22,4.79,7.49,9.54,15.83l.67-.23c-1.61-7.82-3.21-17.7-4.8-29.64l-2.13-15.98c-.28-2.11-.05-3.87.7-5.28s1.98-2.32,3.7-2.74l5.33-.99c4.5-.6,7.8-.2,9.9,1.2,2.1,1.4,3.42,4.12,3.96,8.16l8.76,65.56c.48,3.58-.3,6.16-2.33,7.74Z"/>
      <path class="cls-6" d="M677.69,782.81l-5.39,1.87c-4.62,1.36-8.1,1.51-10.44.46-2.34-1.05-4.12-3.66-5.35-7.84l-18.9-64.25c-.89-3.02-.72-5.24.5-6.67,1.22-1.42,2.95-2.46,5.17-3.11l2.97-.73c4.62-1.36,8.1-1.51,10.44-.46,2.34,1.05,4.12,3.66,5.35,7.84l18.9,64.25c1.28,4.36.2,7.23-3.25,8.63Z"/>
      <path class="cls-6" d="M665.68,702.31c1.15-3.07,3.54-5.42,7.16-7.08l36.55-16.63c3.88-1.77,6.77-1.45,8.67.94,1.27,1.66,2.15,3.04,2.65,4.14,2.69,5.9,1.5,10-3.56,12.31l-26.69,12.14,5.35,11.76,23.27-10.59c3.88-1.76,6.77-1.45,8.67.94,1.19,1.5,2.05,2.83,2.59,4.01,2.69,5.9,1.54,9.98-3.43,12.25l-23.27,10.59,6.04,13.28,27.32-12.43c3.88-1.76,6.77-1.45,8.67.94,1.27,1.66,2.15,3.04,2.65,4.14,2.72,5.99,1.56,10.13-3.5,12.43l-36.93,16.8c-3.63,1.65-6.97,1.9-10.04.75-3.07-1.15-5.43-3.54-7.08-7.16l-24.34-53.5c-1.65-3.63-1.9-6.97-.75-10.04Z"/>
      <path class="cls-6" d="M727.67,686.45c-1.58-1.37-2.75-2.57-3.52-3.62-1.97-2.69-2.85-5.17-2.64-7.46.22-2.29,1.45-4.25,3.69-5.9l44.23-32.49c3.36-2.47,6.34-2.71,8.96-.72,1.58,1.37,2.75,2.58,3.52,3.62,1.97,2.69,2.85,5.17,2.64,7.46-.22,2.29-1.45,4.25-3.69,5.9l-12.43,9.13,34.22,46.58c2.69,3.66,2.65,6.73-.12,9.23l-4.43,3.6c-3.88,2.85-7.1,4.18-9.66,3.99-2.56-.19-5.12-2.04-7.7-5.55l-31.92-43.45-12.21,8.97c-3.36,2.47-6.34,2.71-8.96.72Z"/>
      <path class="cls-6" d="M798.79,604.63c3.35-3.83,6.67-6.53,9.95-8.1,3.28-1.56,6.26-1.85,8.95-.84,8.84,3.55,20.48,8.74,34.92,15.59l30.21,14.43c1.02.52,1.88,1.09,2.57,1.7,1.81,1.59,2.45,3.5,1.91,5.73-.54,2.24-2.06,4.78-4.56,7.64-2.74,3.14-5.2,4.96-7.37,5.46-2.17.51-4.97-.01-8.42-1.56l-8.86-4.43-16.56,18.93,5.02,7.35,1.96,2.82c2.19,3.27,2.51,6.2.98,8.8-.71,1.23-1.64,2.51-2.8,3.83-2.93,3.35-5.79,5.39-8.6,6.14-2.81.75-5.29.17-7.45-1.72-1.32-1.16-2.18-2.15-2.56-2.98-.67-1.2-1.55-2.52-2.63-3.96-2.69-3.96-6.63-10.29-11.8-19.01l-7.01-12.04-6.8-11.86-6.93-12.34c-2.79-5.39-.83-11.93,5.88-19.59ZM822,630.85c2.54,4.56,5.22,8.88,8.05,12.95l11.34-12.97c-10.8-5.38-19.38-9.51-25.74-12.36l-.55.63,6.89,11.75Z"/>
    </g>
  </g>
  <path class="cls-4" d="M406.95,540.5c.01-.08.02-.17.04-.25,0,0,0-.02,0-.03l-.04.28Z"/>
  <path class="cls-4" d="M430.9,602.27c-.07-.03-.13-.08-.2-.11-.02,0-.04-.02-.06-.02.09.05.18.09.25.14Z"/>
  <g>
    <circle class="cls-2" cx="551.34" cy="412.39" r="277.62"/>
    <path class="cls-5" d="M885.79,470.05c-.17-.18-.35-.35-.53-.52-2.24-2.75-4.37-5.56-6.25-8.67-.25-.37-.48-.76-.72-1.14-1.93-3.5-3.52-7.23-4.8-11.08,1.51.37,3.03.68,4.57.89,5.54.75,11.22.42,16.7-1.02,1.82-.85,5.03-.97,7.19-2.02-.51-.21-1.01-.44-1.52-.66-.89-.4-1.78-.82-2.65-1.26-.17-.09-.34-.18-.51-.27-.7-.36-1.4-.73-2.09-1.12-.23-.13-.46-.26-.69-.39-1.74-.99-3.44-2.04-5.11-3.15-.34-.23-.67-.48-1.01-.71-.66-.89-1.6-1.56-2.66-1.86-3.89-2.85-7.57-6.04-10.84-9.64-1.83-2.01-3.55-4.17-5.05-6.49-.2-.32-.4-.64-.6-.96-1.44-2.38-2.63-4.92-3.42-7.67-.11-.4-.14-.8-.08-1.2-5.37-9.26-9.35-19.58-12.41-30.11,2.66,2.04,5.22,4.27,7.68,6.71,2.67,2.69,5.12,5.57,7.29,8.71,1.11,1.99,2.18,3.98,3.23,5.92.48.92,1.62,1.23,2.47.68,4.03-2.17-12.16-23.14-14.44-26.26-5.36-6.55-11.42-13.23-18.68-17.35,3.03-1.24,7.65-3.57,9.73-5.93,2.47-2.05,4.25-5.2,5.04-9.15.23-.84-.14-1.46-.69-1.77-.17-.23-.41-.45-.77-.62-1.02-.39-2.22.52-2.2,1.71-2.9,5.57-10.29,4.35-14.96,2.43-2.33-1.05-4.47-2.43-6.57-3.91-1.42-1.21-2.82-2.46-4.19-3.75-7.44-8.61-15.95-16.19-24.83-22.96-18.99-14.78-44.19-15.92-66.64-10.03-.32.1-.74.2-1.19.29-1.3.13-2.59.35-3.87.66.08-.5-.07-1-.36-1.5-.02-.13-.07-.26-.11-.38-.06-1.21-.4-2.36-.96-3.4-.04-.08-.08-.17-.13-.25-.08-.14-.17-.28-.26-.42-.05-.07-.09-.14-.14-.2-.55-.8-1.21-1.52-1.96-2.12-6.23-5.77-12.41-11.73-19.79-15.8-4.47-2.74-9.17-4.92-14.02-6.75-4.8-2.42-9.75-4.51-14.9-6.12,4.24-1.65,14.76-.13,14.29-7.08-.46-3.85-4.84-3.3-7.51-3.99-6.52-1.01-13.09-2.09-19.68-2.82.94-2.98-1.82-7.24-3.3-9.58-4.98-6.8-11.72-12.72-20.15-12.91-.16-.03-.32-.04-.49-.06,10.77-8.22,24.25-13.76,37.27-10.44.58.17,1.19-.04,1.61-.47,1.05.09,2.25-1.23,1.23-2.53-1.07-1.51-2.68-2.33-4.23-3.18-20.82-11.97-46.36-10.22-68.17-.92-3.51,1.45-6.94,3.08-10.33,4.84,9.01-11.41,19.17-22.06,30.79-30.26,4.04-11.18-33.81,14.28-36.26,16.36-5.73,4.58-12.13,9.62-16.93,15.77.93-3.31,1.92-6.6,2.99-9.87,4.96-14.4,13-27.62,23.62-37.95.24-.25.35-.52.38-.8.2-.12.36-.33.39-.59-.2-.49-.58-.72-1.09-.77-.43-.26-.99-.26-1.45.23h0c-2.26.77-5.6,3.2-8.73,5.85-3.21,1.11-7.11,6.18-9.01,7.97-7.38,8.16-13.13,17.78-17.38,28.14-.75-1.79-1.47-3.6-2.18-5.41-.09-.63-.31-1.15-.62-1.58-1.56-3.93-3.15-7.83-5.17-11.5-2.7-4.94-5.96-9.44-9.68-13.45-3.12-4.06-6.87-7.48-11.39-9.79-1.66-.66-2.56,2.23-.91,2.78.08.05.16.1.24.15.14.71.7,1.26,1.38,1.29,2.99,2.02,5.63,4.4,8.02,7.02,8.95,11.43,11.62,28.49,11.64,43.35,0,.18.04.35.08.52.03.57.08,1.14.18,1.67-.02,1.44-.05,2.88-.08,4.33-1.18-2.22-2.4-4.42-3.64-6.6.68-1.43.58-3.18-.3-4.55-4.06-6.25-8.52-12.25-13.47-17.72-.6-.85-1.19-1.69-1.81-2.51-12.95-17.28-28.43-25.81-49.48-20.78-.57-.04-1.3.05-1.33.82-.17.04-.33.08-.5.13-.02,0-.04,0-.06,0-.5-.32-1.2-.04-1.43.56-.59.2-1.04.79-1.04,1.47-.03.96.88,1.74,1.74,1.48,3.18,1.13,6.26,2.62,9.23,4.34.32.28.69.49,1.11.63,1.13.69,2.25,1.41,3.34,2.18,4.28,4.26,8.1,9.05,11.19,14.35-13.04-6.37-28.67-8.83-43.12-7.82-.25-.03-.51-.06-.76-.09-.68-.09-1.27.04-1.77.29-2.91.29-5.76.71-8.52,1.28,0,0,.01,0,.01,0,0,0,0,0,.01,0-10.59,2.32-21.03,8.65-28.55,17.2-.92.16-1.56,1.46-.92,2.37.38.56,1.03.67,1.56.42.26.27.64.4,1.06.21,4.57-1.77,9.55-3.14,14.43-3.23,4.65.39,9.15,2.39,13.45,4.32.39.14.76.29,1.14.44,8.55,5.63,15.41,13.99,21.03,22.83-8.21-4.64-18.35-6.02-27.36-6.21-8.07.86-16.02,4.71-22.16,10.55-1.16,1.3-3.01,2.86-4.13,4.57-.22.27-.42.55-.63.83.03-1.4-.98-3.04-2.42-4.59-1.51-2.34-3.63-4.23-6.08-5.71-.67-.71-1.33-1.42-2.03-2.08-1.92-1.8-3.99-3.37-6.34-4.47-2.12-1.01-4.5-1.56-6.84-1.5-2.18.04-4.32.49-6.4,1.28-5.14,1.98-9.6,5.85-13.22,10.22-3.92,4.75-7.19,10.07-10.03,15.61-2.7,5.24-5.01,10.71-7.08,16.25-1.89,5.07-3.59,10.21-5.14,15.41-.05.15-.14.46-.24.79l-.13.43c-.88,2.95-1.82,6.3-2.7,9.67-.29,1.11-.58,2.22-.88,3.34-.06.22-.12.45-.19.68-1.98,5.59-3.99,11.17-6.1,16.71-1.22,3.19-2.47,6.38-3.72,9.57-.21.53-.42,1.07-.63,1.6-.32.81-.65,1.6-1,2.39,0,0,0,0,0,0-.29.67-.59,1.35-.87,2.03-.62,1.45-1.23,2.91-1.91,4.32-.42.91-.85,1.81-1.27,2.72,0-.02.02-.04.03-.07-.42.9-.84,1.79-1.26,2.69-.3.64-.64,1.26-.97,1.87-.58,1.12-1.15,2.22-1.73,3.33-.77,1.48-1.66,2.89-2.5,4.32-.47.77-.93,1.56-1.41,2.34-.34.57-.75,1.11-1.12,1.66-1,1.47-1.97,2.98-3.04,4.37-1.08,1.4-2.15,2.82-3.25,4.19-.63,1-1.28,1.99-1.9,3-.91,1.45-1.92,2.84-2.88,4.24-.97,1.43-2.07,2.76-3.15,4.06-.23.28-.48.55-.72.82-.56.64-1.15,1.26-1.75,1.86-.14.14-.28.28-.42.41-.71.69-1.44,1.36-2.21,1.98-.14.11-.28.22-.41.33-.11.09-.22.18-.33.26h0s-.01.01-.02.02c.03,0,.05,0,.08,0,.07,0,.13.02.2.03.59.08,1.18.12,1.77.15.04,0,.07.02.11.02.23.03.48.03.74,0,2.62.01,5.25-.47,7.79-1.32.37-.38.88-.58,1.39-.5.7-.27,1.38-.59,2.07-.92-.24.78-.46,1.56-.7,2.34.08.49-.04.97-.3,1.36,0,.06,0,.13-.02.2-.09,1.26-.39,2.48-.77,3.68-.35,1.13-.79,2.22-1.28,3.3-.61,1.33-1.29,2.62-2,3.88-1.32,2.33-2.81,4.53-4.41,6.65-.29.38-.59.76-.89,1.14-.57.72-1.15,1.44-1.75,2.14-.02.03-.04.05-.07.08-.1.12-.2.23-.3.35-.5.58-1,1.14-1.51,1.7-.02.02-.03.04-.05.06-.55.61-1.11,1.21-1.67,1.8-.05.05-.09.09-.14.14-.83.86-1.68,1.71-2.54,2.53-.49.47-.99.95-1.49,1.4,3.3-.25,6.59-1.09,9.77-2.36-3.63,9.44-7.73,18.69-13.12,27.15-1.9,3.2-5.32,5.82-4.55,10.05.02.12.06.24.08.36,0,.03-.01.05-.02.08-.69,3.12-.08,6.31,1.42,8.97,1.07,1.79,2.51,3.27,4.21,4.34,1.51.94,3.14,1.58,4.83,2.03,0,0,0,0,0,0,.13.04.27.07.4.1l-.14-.04c.66.15,1.32.27,1.99.36,2.56.34,5.14.22,7.73-.27,5.08-.99,10.01-3.02,14.44-5.95,6.64-3.54,12.48-9.95,16.79-16.24,4.04-5.13,7.25-10.68,9.92-16.49.17-.34.34-.68.5-1.02,3.9-8.78,6.77-17.95,9.4-27.21,16.33-6.5,22.62-2.07,38.46,10.07.18.07.38.14.59.21.21.23.44.43.66.63.73,1.74,2.49,2.72,3.87,3.95,4.01,11.53,12.13,20.31,19.86,29.68,2.99,6.26,5.06,13.08,6.48,20.03-.02.4-.07.81-.14,1.22-1.31,1.35-2.7,2.59-4.22,3.64-1.12.64-2.28,1.16-3.38,1.57-.54.38-2.15.67-3.6,1.07-1.58.14-3.19.09-4.76.08-.05,0-.09,0-.14,0-.04,0-.08,0-.12,0-.05.01-.09.03-.13.05-.07.03-.13.06-.19.11,0,0-.02.01-.02.02-.1.08-.18.18-.24.3-.25.51.07,1.16.58,1.23.11.05.22.08.34.13.83.75,3.13,1.12,4.73,1.36.15.16.37.27.7.29.84.2,1.7.28,2.55.26,1.13.09,2.24.02,3.34-.19-.71,1.27-1.42,2.54-2.13,3.8-.37.65-.75,1.29-1.12,1.93-3.88,3.35-8.02,6.43-11.32,10.49-3.56,4.11-6.44,8.8-9.43,13.38-.11.17-.15.37-.16.57-.37.57-.73,1.15-1.1,1.73-.2.32-.17.73,0,1.03-.04.21-.04.38.05.49.33.79,1.57.49,1.5-.42.65-.81,1.33-1.59,2.03-2.35.17-.08.32-.19.43-.37.05-.08.11-.16.16-.24,2.01-2.09,4.19-4.01,6.47-5.79-.06.11-.13.21-.19.32.02.1.03.21.02.31,0,.1-.03.19-.05.29,0,.04-.01.09-.02.13-.03.14-.08.27-.14.4-.33.75-.72,1.49-1.08,2.22-.75,1.6-1.59,3.13-2.33,4.72-.35.75-.67,1.5-.99,2.26,0,0,0,0,0,0-.03.07-.06.13-.08.2-.13.3-.25.6-.38.91-.25.6-.5,1.21-.75,1.81-.15.37-.29.73-.44,1.1-.55,1.36-1.11,2.71-1.64,4.07,0,0,0,0,0,0,0,.02-.01.03-.02.05h0s0,0,0,.01c0-.02.02-.05.02-.07,0,0,0,0,0,0,0,0,0,0,0,0,0,0,0,0,0,0,0,0,0,0,0,0-.02.05-.04.1-.06.15,0,.03-.02.05-.02.06,0,0,0,0,0,0,0,0,0,0,0,0,0,0,0,0,0,0,0,0,0,0,0,0,0,0,0,0,0-.01,0,0,0,0,0,0,0,.03-.02.06-.03.08-.16.47-.33.93-.49,1.39-.16.46-.32.92-.47,1.38-.09.28-.17.57-.25.85-.15.5-.3,1.01-.45,1.51-.08.28-.17.56-.25.85,0,.04-.01.08-.03.1-.37,1.54-.75,3.09-1.05,4.64-.3,1.53-.53,3.09-.73,4.64,0,.03,0,.07,0,.1,0,.05-.01.1-.02.15,0-.05.01-.09.02-.14-.04.35-.05.69-.09,1.04-.12,1.22-.22,2.44-.3,3.66-.03.44-.06.88-.08,1.33-.07,1.27-.11,2.54-.14,3.81,0,.36-.04.73-.04,1.09.02,1.03.06,2.05.11,3.09.05,1.11.2,2.23.3,3.32,0,0,0,0,0,.01.03.14.04.28.05.42v.03s0,.05,0,.08t0,.03s0,.02,0,.03c0,0,0,0,0,.01,0,0,0,.01,0,.02,0,.01,0,.03,0,.04,0,.01,0,.03,0,.04h0s0,0,0,0c0,0,0,0,0,0,0,0,0,.01,0,.02,0,0,0,0,0,.01,0,0,0,0,0,0,0,0,0,0,0,0,0,0,0,0,0,0,.02.14.04.27.06.41,0,.03,0,.06.01.09,0,.03.02.05.01.08,0,.04,0,.08,0,.11,0,0,0,0,0,0,0,.01,0,.03,0,.04h0s0,.03.02.05h0c.27,1.95.53,3.89.94,5.78.65,5.28,2.17,10.4,4.8,15.23.09.2.17.4.26.6.82,1.86,1.63,3.73,2.64,5.49,1.05,1.81,2.18,3.56,3.3,5.32.47.73.94,1.45,1.42,2.16,0,0,.01.02.02.02,0,0,.01.01.02.02,0,0,0,0,0,0,0,0-.01-.01-.02-.02,0,0,0,0,0,0,0,0,0-.01-.01-.02,0,0,0,0,0,0,0,0,0,0,0,.01.02.02.04.04.05.06,0,0,0,0,0,0,0,0,0,0,0,0,0,.01.02.02.03.03,0,0,0,0,0-.01.02.02.04.04.06.07.36.38.73.75,1.1,1.12.09.09.18.19.28.28.14.14.29.27.44.41,1.32,1.27,2.71,2.45,4.16,3.55,0,0-.02,0-.02,0,.35.25.7.48,1.05.71.57.39,1.13.79,1.7,1.17.49.33.98.64,1.49.92t0,0s0,0,0,0c.02,0,.03.02.05.03,0,0,.01,0,.02,0,.07.03.13.06.19.1-.05-.03-.09-.06-.14-.08,1.31.65,2.68,1.16,4.04,1.68.88.34,1.75.66,2.64.93,1.51.38,3.05.69,4.61.91.83.1,1.65.17,2.46.25.03,0,.06,0,.09.01.02,0,.04,0,.06,0,.03,0,.07,0,.1,0,.06,0,.11,0,.17.01-.05,0-.11-.01-.17-.01.32.03.64.05.95.09-.04,0-.08-.01-.12-.02.04,0,.09,0,.13.01-.04,0-.08-.01-.12-.02.09.01.18.02.27.03.04,0,.07,0,.1.01.04,0,.08,0,.11,0,0,0-.01,0-.01,0,.28.02.57.05.85.07.17.02.34.04.51.05-.01,0-.02,0-.04,0,.73.06,1.46.1,2.19.12.13,0,.25,0,.38,0,.6,0,1.2,0,1.81-.02.02,0,.03,0,.04,0,.04,0,.07,0,.12,0-.03,0-.06,0-.09,0,0,0,0,0,0,0,.03,0,.06,0,.09,0,0,0,0,0,0,0,0,0,.02,0,.03,0,0,0,0,0,0,0,0,0,.01,0,.02,0,0,0,.01,0,.02,0,0,0,0,0-.01,0,.08,0,.15-.02.23-.03.81-.07,1.61-.18,2.41-.29.08-.01.17-.02.25-.03.45-.06.88-.13,1.33-.17.26-.02.53-.02.8-.02.01,0,.03,0,.04,0,.27,0,.53.02.8.03.12,0,.24,0,.36-.01.02,0,.04,0,.06,0,.12,0,.24,0,.36,0,.58.08,1.11.35,1.6.68.15.1.29.2.44.31.51.93,1.08,1.81,1.67,2.66-9.37,14.09-19.85,37.45-15.05,60.65,32.33,13.18,67.54,20.6,104.6,20.6s75.24-8.43,107.99-22.01c-1,.12-1.97.11-2.87-.08,1.74-9.46,9.41-19.78,12.48-29.4,4.09-12.84,6.53-26.92,4.15-40.33.09-.06.17-.11.26-.18.63-.52,1.08-1.25,1.33-2.05,1.17-1.78,1.66-4.43,2.04-6.45,1.28-6.85.22-14.19-3.17-20.06,7.05-2.42,12.22-8.07,17.54-13.27,1.12-1.01,2.29-2.29,2.44-3.94.56-4.81-4.85-6.73-7.58-3.09-7.92,4.62-17.43,11.13-19.24-3.46-1.09-6.28-.31-12.34,1.34-18.28,3.54-5.72,7.2-11.5,9.92-17.67,1.23-1.42,2.11-3.69,2.94-5.18,5.5-8.86,5.69-19.56,3.83-29.57,1.3,2.81,2.55,5.92,2.59,9.12-.52,2.17.74,4.38,2.82,4.66.69.1,1.33-.06,1.9-.36,3.67.34,6.85-5.67,8.71-8.77,3.05-5.95,2.95-12.77,1.77-19.25,4.21,2.71,9.07,4.28,13.92,5.09,5.56,1,11.21.61,16.77-.41.39-.06.73-.3.94-.63,1.41-.19,2.82-.48,4.25-.93,0,0-.02-.01-.03-.02,2.06-.47,3.02-3.49,1.71-5.22-3.87-3.42-9.25-4.51-13.63-7.16-5.57-2.9-10.84-7.76-13.79-13.97,6.36,4.72,13.7,7.56,20.93,10.47,1.16.53,2.33,1,3.52,1.45,5.4,2.26,11.05,3.41,16.79,3.57,5.83.35,11.72-.18,17.44-1.68,5.08-1.37,10.33-3.12,15.55-1.99.75.09,1.49.21,2.23.36,4.3,1.84,8.42,4.29,12.21,6.86.41.2.8.43,1.21.64,1.59,1.59,3.16,3.17,4.74,4.61,8.7,9.72,19.32,17.17,30.98,22.25,5.91,2.6,12.25,4.06,18.66,4.51,8.12,1.07,16.34,1.19,24.54,1.38,1.38.18,3.15.09,4.76-.37,4.62,0,9.79-3.45,9.17-8.87-1.26-5.39-6.29-8.01-10.33-11.05ZM849.94,350.23c-.11.08-.22.16-.3.28-.04.06-.09.11-.14.17,0-.08,0-.16-.02-.24.16-.06.3-.14.46-.21ZM348.51,347.21s-.03-.03-.04-.04c.04-.1.09-.21.13-.31-.03.12-.06.23-.09.35ZM446.24,606.19h-.03s.02,0,.03,0c0,0,0,0,0,0ZM843.68,364.61s0,0,0,0c0,0,0,0,0,0,0,0,0,0,0,0Z"/>
    <g>
      <path class="cls-3" d="M429.18,250.1c-.38.42-.83.88-1.31,1.36-.97.97-2.07,2.07-2.82,3.21-3.75,4.67-6.01,9.63-6.56,14.34,0,.02,0,.05,0,.07.13.42.43.63.76.67.15.02.3,0,.45-.04,0,0,0,0,0,0,.04.02.08.05.15.06.04.01.08,0,.11-.02,3.46-2.35,7.06-4.51,10.69-6.42h.02c.13-.02.27-.04.41-.08,1.52-.41,3.06-.86,4.55-1.3,2.59-.76,5.26-1.54,7.92-2.17,17.52-3.99,35.33-.71,47.62,8.76.59.63,1.3.96,2.04.94.05.06.11.13.16.19.12.14.24.27.35.41.57.75,1.4,1.2,2.28,1.24.84.04,1.64-.3,2.27-.96.62-.82.89-1.7.8-2.61-.23-2.47-2.97-4.79-5.18-6.65-.4-.34-.78-.66-1.11-.95-.62-.76-1.27-1.53-1.92-2.27.37-.7.58-1.67.61-2.85.11-.54.1-1.1-.03-1.57-.33-4.77-2.53-11.29-3.47-14.08l-.23-.68c-6.14-12.46-12.53-21.15-19.54-26.56-.2-.18-.4-.35-.61-.52,10.39-.13,21.31,2.33,32.42,7.32,5.94,3.99,11.59,8.88,16.81,14.54.55.54,1.22.9,1.95,1.04.55.41,1.08.73,1.64.98,1.92.83,3.52.84,4.62.04.97-.7,1.53-2.02,1.56-3.67.5-2.12.05-4.51-.41-6.59-.46-1.98-.99-4.02-1.58-6.05-.05-.34-.15-.68-.29-1.01-2.81-9.29-6.63-17.12-11.35-23.27-.79-1.33-1.56-2.51-2.29-3.5,8.31,4.25,19.75,12.4,35.09,36.6.63.91,1.57,1.5,2.66,1.65,0,0,.01,0,.02,0,1.08.15,2.19-.17,3.04-.88,1.77-1.47,2.14-4.19.84-6.21-4.4-6.77-8.81-12.56-13.47-17.71l-.13-.19c-.54-.77-1.1-1.57-1.68-2.33-6.84-9.13-13.95-15.28-21.75-18.79-8.46-3.82-17.57-4.48-27.83-2.03-.54-.03-.94.07-1.19.3-.14.14-.23.32-.26.55-.14.03-.27.07-.4.1-.26-.15-.58-.17-.87-.06-.31.11-.55.35-.69.65-.63.25-1.07.89-1.08,1.59-.01.51.21,1.01.6,1.33.38.31.84.42,1.27.3,2.96,1.05,6.04,2.5,9.14,4.3.34.3.72.52,1.13.65,1.13.69,2.25,1.42,3.31,2.15,4.33,4.3,7.99,8.97,10.9,13.88-12.43-5.97-27.58-8.67-42.71-7.61-.25-.02-.51-.07-.76-.09-.65-.08-1.26.02-1.83.29-2.92.29-5.76.72-8.45,1.27-.01,0-.02,0-.04,0-10.58,2.32-20.99,8.59-28.58,17.2-.49.1-.92.5-1.13,1.04-.21.54-.15,1.11.16,1.56.37.55,1.02.75,1.65.51.33.29.74.35,1.14.17,5.38-2.09,10.08-3.14,14.36-3.22,4.65.38,9.1,2.38,13.41,4.31.26.09.51.19.76.29.13.05.25.1.36.14,7.4,4.88,14.16,12.16,20.65,22.26-6.83-3.71-15.87-5.71-26.91-5.94-8.07.86-15.97,4.62-22.24,10.59Z"/>
      <path class="cls-3" d="M503.5,317.54c.3.15.62.2.93.18.37.39.69.65,1.04.82,1.23.57,2.26-.05,2.8-.83.66-.94.87-2.47.02-3.57-1.1-1.72-2.2-3.51-3.25-5.24-3.2-5.25-6.51-10.68-10.75-15.15-4.47-5.11-13.68-13.55-25.14-12.61-.46.05-.89.32-1.2.74-.33.45-.48,1.01-.41,1.54.06.52.32,1.01.72,1.33.4.32.87.44,1.33.36.05,0,.1,0,.15,0h.1c7.09,3.33,13.19,8.69,18.63,16.37-5.39-1.29-10.93-2.07-16.3-2.81h-.04c-.92-.75-2.07-.39-2.75.26-.63.6-1.13,1.72-.48,2.91.01.02.03.04.05.05.05.04.11.07.16.11.04.03.09.06.13.09.13.22.29.4.51.57.24.11.5.21.74.3l.09.03c7.46,5.16,13.73,12.19,18.64,20.86.73,1.72,1.45,3.55,2.19,5.59l.08.38c.04.17.07.35.11.52-.87-1.03-1.78-1.99-2.68-2.84-3.68-4.93-8.2-8.37-13.08-9.95l-.28-.19c-.32-.22-.7-.29-1.08-.2l-.11-.03c-.07-.02-.14-.04-.21-.05-.32-.06-.61,0-.84.18-.24.19-.4.49-.45.84-.07.53.16,1.01.59,1.22.11.3.27.52.49.66,6.35,3.89,11.05,7.58,14.75,11.56,1.87,3.21,3.52,7.07,4.93,11.48.16.27.32.56.47.84.07.13.14.25.21.38.26,1.46.51,2.93.77,4.43.17.44.34.89.5,1.33.11.3.21.6.31.9l.11.33c.14.42.28.84.41,1.26.11.37.22.74.32,1.11.11.38.21.76.31,1.14.1.41.2.82.3,1.23.08.34.16.69.23,1.03.1.45.19.9.28,1.35.12.62.24,1.23.34,1.85.12.72.23,1.46.34,2.26,0,.07.12.13.18.14,1.07.14,2.17-.2,2.94-.93.73-.69,1.13-1.67,1.14-2.83-.04-2.05-.06-4.17-.08-6.22-.12-13.56-.25-27.58-6.85-38.95,1.62.75,3.23,1.59,4.79,2.4.95.49,1.92,1,2.88,1.48Z"/>
      <path class="cls-3" d="M612.47,281.38c.17-.06.33-.11.5-.17.32-.11.65-.22.96-.32.66-.05,1.27-.39,1.68-.92.37-.49.54-1.11.46-1.76-.1-.43-.26-.8-.48-1.1-.06-.19-.15-.35-.29-.5,0,0-.02-.02-.03-.02-1.35-.86-3.01-.74-4.31-.54-.62-.13-1.23-.05-1.75.23-.29.1-.58.17-.89.25l-.79.21c-.68.18-1.39.37-2.08.57-2.03.6-4.05,1.31-5.99,2.1-2.72,1.08-5.57,2.46-8.24,3.98-7.57,4.27-14.49,10.04-20,16.7-4.19,5.07-7.6,10.52-10.15,16.19-1.22,2.73-2.23,5.64-2.99,8.64-.26,1.01-.44,2.03-.57,2.8-.48,1.02-.62,1.95-.41,2.78l-.02.12c-.02.14-.03.28-.05.42-.2.31-.29.68-.24,1.05,0,.05.02.08.03.11,0,0,0,0,0,0l-.13.46c-.11.38-.22.77-.32,1.15,0,.03,0,.05,0,.05,0,0,0,0,0,0l-.08.27c-.05.17-.09.33-.14.5-.07.28-.02.56.13.8-.1.28-.14.5-.15.71-.01.02-.04.02-.04.05,0,.02,0,.03,0,.04v.09s.02.03.03.05c.07.44.43.79.85.79.66,0,.8-.56.92-1,.05-.18.09-.36.15-.48,2.4-3.15,5.41-6.17,9.16-9.21-.18.29-.36.59-.54.9-1.9,2.54-3.48,4.84-4.8,7.05-1.37,2.21-7.42,13.85-8.45,19.52l-.41.75s-.01.03-.02.05c-.14.74-.28,1.48-.43,2.23-.12.66-.21,1.36-.29,1.97,0,.04,0,.08.03.11.19.28.42.5.69.67.27.17.57.28.88.33.95.13,1.92-.38,2.4-1.27l.76-1.39c1.45-2.45,3.14-4.8,4.77-7.07,1.02-1.43,2.08-2.9,3.07-4.39.69-1,1.46-2.08,2.32-3.29,1.31-1.52,2.71-3.15,4.06-4.77,8.02-9.11,18.94-20.53,32.36-28.11.37-.22.67-.56.89-.98,3.52-2.04,6.86-3.68,10.2-4.99.62-.15,1.16-.58,1.53-1.22.39-.69.52-1.53.33-2.28-.09-.24-.21-.47-.37-.72-.19-1.05-1.08-1.83-2-1.75-4.29.33-8.47.73-12.54,2.14-1.36.44-5.96,2.42-10.91,4.9,1.18-1.92,2.52-3.94,3.98-6.01,4.87-7.04,11-13.09,17.74-17.5Z"/>
      <path class="cls-3" d="M575.62,236.85s.03-.04.04-.07l.03-.08c.03-.07,0-.15-.05-.19-.06-.04-.13-.03-.18.03l-.27.31c-.05.06-.05.16,0,.21.02.03.05.04.08.04.04,0,.08,0,.12-.04.08-.07.15-.15.23-.22Z"/>
      <path class="cls-3" d="M717.62,425.63c.29.19.57.38.85.58.38.26.77.52,1.15.77.36.23.73.46,1.09.69l.75.48c.56.36,1.12.71,1.68,1.06l.3.19c.12.08.24.15.36.22,0,0,.02,0,.03.01l1.12.69s0,.01,0,.02c.04.03.08.05.12.07.04.02.07.04.11.06.02.01.03.02.05.02,0,0,0,0,0,0,0,0,0,0,0,0,.59.33,1.17.65,1.76.98l.65.32s.02.01.03.02l.25.12c.8.39,1.46.69,2.06.96.04.02.08.04.13.06.04.02.09.04.14.06,1.05.46,2.13.89,3.18,1.3l.53.21s.03.02.05.03l.45.18c.2.08.4.16.61.24,0,0,.01,0,.02.01.09.03.18.07.26.1l.25.1c.57.23,1.14.45,1.72.67.13.05.27.1.4.15l.22.08c.61.22,1.23.44,1.83.63.07.02.14.05.22.08.09.03.18.06.27.09,1.27.38,2.42.71,3.52,1,1.07.3,2.19.49,3.27.68l.34.06c.99.18,1.86.31,2.66.42,1.32.18,2.64.3,3.91.42.03,0,.06,0,.08,0,.04,0,.09,0,.13,0h.11c.62.01,1.25,0,1.94-.01h.28c.63-.03,1.26-.07,1.88-.12h.09s.07,0,.11-.01c.01,0,.02,0,.03,0,.97-.08,1.85-.17,2.67-.28.08-.01.16-.03.25-.05.05-.01.1-.02.15-.04.44-.09.89-.2,1.35-.34l.23-.07c.1-.03.21-.06.34-.1,0,0,.02,0,.03-.01.02,0,.03-.01.02-.01.03,0,.05,0,.08-.01,0,0,0,0,.01,0,.02,0,.04-.01.06-.02.03,0,.06-.02.09-.03.02,0,.03-.02.05-.03t0,0c.61-.22,1.21-.43,1.82-.64l1.02-.36s.03-.02.04-.03c.07-.03.14-.05.22-.07.06-.02.11-.04.17-.06.02,0,.03,0,.05,0h.03s.07-.04.1-.06t0,0s.04,0,.07-.01c.01,0,.02,0,.03,0,.02,0,.06-.02.1-.04.98-.37,2.13-.82,3.26-1.43.34-.19.67-.39,1-.62.05-.05.11-.09.16-.14.06-.05.12-.1.18-.16.07-.07.15-.14.21-.22.3-.4.6-.81.9-1.25.03-.04.04-.09.02-.14-.01-.05-.05-.08-.09-.1-.26-.09-.52-.18-.79-.27l-.23-.08s0,0-.01,0c-.12-.04-.24-.09-.36-.13-.13-.05-.26-.1-.39-.14l-.67-.23c-.39-.13-.79-.27-1.18-.4-.02,0-.05,0-.07,0-.02,0-.04,0-.05.02-.65.41-1.32.78-1.99,1.11-2.63,1.33-5.62,1.8-8.47,2.12-.65.08-1.31.13-1.93.17-.43.03-.85.06-1.28.08-.31.02-.61.04-.92.06-.01,0-.03,0-.04,0-1.07.07-2.21.11-3.5.11-.72,0-1.66,0-2.6-.06-1.06-.06-2.2-.17-3.68-.37-.62-.08-1.23-.17-1.85-.26l-.56-.09c-.74-.12-1.5-.24-2.25-.39-.34-.07-.69-.13-1.04-.2-.73-.14-1.49-.28-2.21-.47l-.1-.03s0,0,0,0c0,0-.02,0-.02,0-.72-.18-1.44-.36-2.16-.55-2.5-.66-4.4-1.25-6.16-1.93-1.12-.44-2.28-.97-3.55-1.64-.86-.45-1.75-.96-2.81-1.61l-.34-.2c-.81-.5-1.67-1.05-2.73-1.73-.79-.51-1.63-1.1-2.57-1.79-.01,0-.02-.01-.03-.02-.48-.18-.96-.37-1.44-.57-.07-.03-.13.01-.17.08-.03.07,0,.16.05.21.15.12.3.24.47.37.67.48,1.35.96,2.02,1.46Z"/>
      <path class="cls-3" d="M602.51,514.62c1.14-.65,1.69-1.76,1.57-3.21-.24-2.96-3.06-6.53-5.08-7.15,0,0-.01,0-.02,0h0c-.75-.1-1.48.23-1.99.89-.53.69-.71,1.6-.46,2.45.25.51.54,1,.82,1.48.68,1.16,1.33,2.26,1.51,3.7.2.8.71,1.46,1.42,1.82.26.13.54.22.82.26.48.06.97-.01,1.42-.23Z"/>
      <path class="cls-3" d="M600.94,527.78c.17-.69,0-1.41-.44-1.94-.59-.79-1.17-1.63-1.73-2.44-1.3-1.89-2.65-3.85-4.33-5.42-.76-.48-1.75-.4-2.54.2-.75.57-1.11,1.44-.97,2.34.11.57.22,1.14.32,1.72.61,3.24,1.25,6.59,1.51,9.99-.29-.24-.69-.6-1.17-1.03-.55-.5-1.18-1.07-1.85-1.63-.05-.04-.12-.04-.17,0-.05.04-.08.11-.06.17l.1.41c.32,1.38.65,2.81.96,4.21.06.26.12.52.18.78.06.28.13.55.19.83,0,.03.02.06.05.08,1.43,1.21,2.57,1.86,3.48,1.98.64.09,1.17-.09,1.56-.54,1.07-1.18,1.25-4.28.55-9.73.7.93,1.82,1.69,2.8,1.57.49-.06,1.16-.37,1.54-1.54Z"/>
      <path class="cls-3" d="M569.89,568.15c-.04.07-.03.16.03.2.02.02.04.03.07.03.04,0,.09-.01.12-.05.06-.06.11-.12.18-.19l.17-.17s.03-.03.03-.05l.26-.69c.03-.07,0-.16-.07-.2-.07-.03-.15-.01-.19.06-.2.35-.41.7-.61,1.05Z"/>
      <path class="cls-3" d="M622.04,307.44s0,0-.01,0c-1.47-.68-3.08-.12-4.63.43-.53.19-1.03.36-1.52.49-1-.04-1.96.71-2.36,1.86-.24,1.11-.13,1.95.34,2.49.37.43.92.64,1.57.73,1.17.16,2.65-.11,3.94-.34.62-.11,1.21-.22,1.67-.25,1.12-.14,1.99-1.06,2.23-2.35.24-1.3-.24-2.5-1.23-3.06Z"/>
      <path class="cls-3" d="M457.97,306.49c.3.13.59.21.86.25,1.52.2,2.69-.87,3.2-2.13.6-1.51.36-3.56-1.59-4.46,0,0-.01,0-.02,0-.76-.21-1.74-.67-2.79-1.15-2.6-1.2-5.55-2.56-7.48-1.58-.76.39-1.3,1.13-1.6,2.19-.3,1.09-.04,2.28.69,3.19.71.88,1.73,1.31,2.73,1.15,1.91.57,3.75,1.46,5.53,2.33l.47.23Z"/>
      <path class="cls-3" d="M445.41,308.27s-.05,0-.06,0c-.64.04-1.29.08-1.92.13l-3.04.23s-.07.02-.08.03c-.67.33-1.37.67-2.05.99l-.48.23c-1.02.49-2.08.99-3.11,1.53-.06.03-.09.1-.08.17,0,.07.04.13.12.13,5.35.67,10.9,1.89,16.97,3.77.12.03.24.06.36.07,1.53.21,2.58-1.03,2.84-2.37.25-1.29-.22-2.79-1.83-3.22-2.44-.64-4.93-1.19-7.64-1.69Z"/>
      <path class="cls-3" d="M560.91,505.23c.13,1.69.25,3.43.49,5.15.07.55.33,1.03.75,1.37.28.22.6.36.93.41.18.02.35.02.53,0,.97-.16,1.75-1.15,1.7-2.17-.12-1.2-.22-2.45-.31-3.66-.37-4.84-.74-9.85-3.06-14.02-.42-.83-1.09-1.24-1.85-1.12-.82.13-1.56.85-1.75,1.71-.1.46-.13,1.33.83,2.05,1.21,3.24,1.47,6.67,1.73,10.3Z"/>
      <path class="cls-3" d="M558.14,512.22c-.04-.39-.09-.76-.1-1.08,0,0,0,0,0-.01-.03-.27-.06-.58-.09-.93-.16-1.88-.41-4.73-1.73-5.44-.53-.29-1.17-.21-1.92.22-.23-.41-.51-.8-.77-1.17-.31-.44-.64-.9-.89-1.4-.56-1.08-1.64-1.12-2.4-.69-.76.42-1.36,1.39-.91,2.52,1.33,3.44,1.97,7.17,2.59,10.77.17.96.33,1.92.51,2.88-.37.66-.39,1.47-.04,2.05.37.6.72,1.13,1.33,1.47.31.13.58.21.82.24.7.09,1.15-.17,1.43-.46.85-.9.9-2.95.46-4.44.57-.04,1.01-.24,1.31-.61.73-.89.55-2.57.39-3.92Z"/>
      <path class="cls-3" d="M548.27,524.48c.51.02,1.07-.3,1.13-1.03.35-4.36-.09-9.07-1.3-14-.06-.31-.24-.57-.51-.73-.28-.17-.61-.22-.91-.13-.61.19-.97.88-.82,1.55.91,3.64,1.36,7.25,1.39,10.78-.35-3.33-1.14-5.86-2.2-6.94-.74-.75-1.62-.81-2.54-.18-.54.35-.94.94-1.09,1.63-.15.65-.06,1.29.24,1.8,1.77,3.8,1.33,8.13.9,12.31-.08.77-.16,1.53-.22,2.29-.08.6.08,1.2.42,1.69.35.49.87.79,1.43.88.04,0,.08.02.13.02.52.07,1.22-.14,1.83-1.38.88-1.76,1.36-5.21,1.28-8.98.18.24.43.39.71.43.04,0,.07,0,.11,0Z"/>
      <path class="cls-3" d="M538.8,537.23c.89-.72,1.39-1.82,1.39-3.03.63-.23,1.02-.61,1.15-1.15.28-1.15-.72-2.61-1.37-3.31-.24-.57-.69-1.02-1.2-1.19-.43-.14-.87-.08-1.27.19-.93.75-.84,1.91-.76,3.03.05.69.1,1.4-.08,2.01-1.85-.77-3.1-.85-3.83-.25-1.04.86-.84,2.93-.64,5.12.08.87.17,1.78.18,2.62.03.94.68,1.7,1.5,1.81.08.01.17.02.26.01,1.99-.23,1.82-2.37,1.69-4.08-.03-.43-.07-.84-.07-1.2,1.05.32,2.18.1,3.05-.6Z"/>
      <path class="cls-3" d="M447.86,415.83c-1.95-1.41-4-3.06-6.44-5.19-.37-.37-.89-.49-1.4-.33-.51.17-.9.59-1.03,1.13-.17.7.14,1.46.72,1.78.4.39.81.79,1.21,1.19,1.53,1.52,3.11,3.09,4.85,4.38.25.21.52.33.8.36.27.04.54,0,.8-.13.6-.28,1.06-.93,1.15-1.62.08-.62-.15-1.18-.64-1.58,0,0,0,0,0,0Z"/>
      <path class="cls-3" d="M451.05,414.63c.08.02.16.04.23.05.86.12,1.48-.54,1.71-1.25.24-.77.07-1.78-.88-2.17,0,0,0,0,0,0-.29-.1-.59-.2-.89-.3-1.41-.48-2.87-.98-4.32-1.31-.02,0-.03,0-.05,0-.85.13-1.18.92-1.13,1.6.05.66.48,1.34,1.3,1.3.43.3.88.56,1.32.81.14.08.28.16.42.24.82.49,1.55.82,2.29,1.04Z"/>
      <path class="cls-3" d="M571.71,425.6c.79-.38,1.18-1.4.86-2.27-.83-2.21-1.66-4.46-2.47-6.66-.18-.36-.42-1.09-.69-1.94-.71-2.24-1.59-5.02-2.77-5.17-.02,0-.03,0-.05,0-.45-.03-.88.31-1.29,1.04-.11-.32-.21-.69-.31-1.07-.32-1.19-.65-2.41-1.49-2.82-.47-.22-1.02-.17-1.7.17,0,0,0,0-.01,0-.52.34-.86.9-.93,1.55-.07.66.14,1.32.57,1.78l.38,1.26c.21.69.41,1.38.62,2.06-.26-.32-.52-.55-.78-.69-.54-.3-1.09-.25-1.67.15-.86.74-.66,1.72-.47,2.67.09.44.19.9.16,1.35.09.56.07,1.23.04,1.94-.04,1.12-.09,2.27.34,3.18.27.39.71.6,1.18.58.39-.02.74-.19.99-.48.22.44.44.83.67,1.18.43.64,1.11.87,1.82.61.65-.23,1.14-.82,1.27-1.48.46.35.93.5,1.39.43.47-.08.89-.38,1.26-.89.34.93.66,1.79.99,2.62.17.42.48.75.88.92.12.05.25.09.38.1.28.04.56,0,.83-.13Z"/>
      <path class="cls-3" d="M583.91,435.89c.75.1,1.54-.16,2.11-.79.47-.51.74-1.23.73-1.98,0-.72-.26-1.37-.72-1.83l-.52-.52c-1.97-1.98-4.01-4.02-5.83-6.24-2.3-2.81-4.11-6.22-5.87-9.52-.37-.69-.73-1.37-1.11-2.07-.55-.72-1.41-.65-2.01-.25-.59.39-1.06,1.18-.83,2.06,0,.02-.02.02-.02.04.02.07.04.13.07.18,0,0,0,0,0,0,0,0,0,.02.01.02.02.04.03.08.05.11,0,0,0,0,0,.01,3.21,8.24,7.41,14.98,12.49,20.04.4.42.91.66,1.42.73Z"/>
      <path class="cls-3" d="M639.34,315.71c-.24-.14-.51-.23-.79-.27-.07,0-.13-.02-.2-.02h-.08c-.28-.08-.55-.15-.82-.21-.57-.14-1.1-.27-1.53-.41-3.37-.59-6.81-.69-10.14-.78-.77-.02-1.54-.04-2.3-.07-1.08-.12-2.88-.31-3.84.62-.41.4-.63.97-.63,1.7,0,1.28.93,2.25,2.19,2.3.36.01.72.02,1.08.03.17.53.48.97.94,1.33.5.31,1.03.47,1.59.54.86.12,1.76.02,2.65-.07.75-.08,1.52-.16,2.25-.1.62-.02,1.24-.28,1.74-.74,2.03.13,4.18.3,6.24.74,1,.35,1.89.74,2.73,1.2.51.24,1.1.23,1.65-.02.57-.25,1.03-.74,1.26-1.34.66-2.68-1.96-3.8-4-4.42Z"/>
      <path class="cls-3" d="M649.93,361.44c-1.13-1.64-4.61-5.41-8.25-8.64-3.29-2.91-7.81-6.37-10.68-6.29-.89.02-1.56.38-2.02,1.07-.01.02-.02.04-.03.07-.07.49.16,1,.56,1.26.02.01.04.02.05.02,0,0,0,0,.01,0,4.26.57,7.69,4.01,10.47,6.94-.71-.21-1.78-.63-2.98-1.1-3.84-1.49-9.09-3.54-10.77-2.33-.34.24-.53.61-.56,1.08,0,.02,0,.04,0,.06.51,1.42,2.07,2.4,3.73,3.44,1.26.79,2.56,1.6,3.37,2.64,6.8,6.47,9.12,16.24,11.02,25.07-4.26-8.18-11.03-18.84-21.61-22.03-.73-.17-1.4.04-1.86.59-.48.57-.64,1.41-.42,2.13.21.7.74,1.16,1.47,1.29.23.08.46.18.68.27.11.05.21.09.32.13.12.41.37.74.76.99,3.63,5.71,3.92,13.19,3.81,19.9-.29-.86-.59-1.74-.92-2.62-4.39-11.61-12.01-20.95-20.93-25.62-1.56-.68-2.79.32-3.26,1.53-.5,1.27-.21,2.9,1.28,3.55,2.91,1.45,5.59,3.43,7.99,5.87-2.36-1.48-4.94-2.6-7.52-3.27-4.39-4.09-9.22-8.18-11.76-7.43-.65.19-1.12.69-1.41,1.52-.06.51.08,1.04.38,1.45.3.4.71.65,1.14.68,1.72.64,3.43,1.66,5.34,3.21-.17.01-.34.03-.52.05-9.24-2.02-17.51.19-23.93,6.39-.32.33-.68.68-1.07,1.05-.33.31-.66.64-.99.97l.06-.2c.17-.54.34-1.09.52-1.63.02-.08-.01-.16-.08-.19-.07-.03-.15,0-.18.08-.39.84-.74,1.74-1.07,2.73-1.01,1.09-2.34,2.74-2.36,4.49,0,.99.4,1.93,1.22,2.8,1.38,1.32,3.58,1.31,4.9-.04,1.21-1.49,2.48-2.85,3.79-4.04-2.05,3.65-2.98,7.88-3.57,11.21-1.5,5.93-.76,11.79,2.13,16.93,3.43,6.11,9.73,10.7,16.83,12.26,1.38.46,2.75.78,4.09.97,4.88.66,9.5-.53,13.53-3.52,4.46-3.31,8.04-8.73,10.09-15.28.17.29.38.56.57.83.15.2.3.4.42.59.8,1.31,1.26,2.88,1.7,4.39.34,1.17.7,2.37,1.2,3.46,0,.01.01.02.02.03.68.78,1.33.88,1.76.83.58-.07,1.11-.46,1.47-1.06.77-.23,1.28-.85,1.38-1.69.62-1.6,1.2-3.26,1.72-4.88.2-.36.33-.76.36-1.13,1.25-4.12,2.05-7.93,2.43-11.65.43-2.48.51-10.51-.57-16.15,5.48,6.85,8.98,16.16,11.69,24.39.2.62.64,1.12,1.24,1.4.65.3,1.37.31,2.01.02,2.14-1.31,1.49-3.76.67-5.75.13-1.23.15-2.81.06-4.72.61-1.19.21-2.81-.32-4.35-.45-4.56-1.18-8.92-1.42-9.87-1.68-7.04-4.07-12.7-7.11-16.86,2.39.9,5.04,2.06,7.06,4.13.74.79,1.7.59,2.33.05.61-.53,1.03-1.53.49-2.48,0,0,0,0,0-.01ZM605.71,390.36c-.61,2.32-2.19,3.68-4.34,3.74-.01,0-.02,0-.03,0-1.05-.14-1.89-.49-2.5-1.04-.87-5.93,1.76-9.65,4.32-11.06,2.23,1.53,3.38,5.26,2.56,8.36Z"/>
      <path class="cls-3" d="M562.6,383.52s0,0,0,0c.06.02.13.03.19.04.64.09,1.29-.36,1.49-1.08.95-3.42,1.81-6.24,3.54-8.94.52-.51.94-1.47.7-2.15-.11-.31-.38-.67-1.16-.65-1.77.45-5.37,7.41-5.58,10.79-.07,1.09.21,1.76.81,1.98Z"/>
      <path class="cls-3" d="M563.17,373.08c.59-.31.76-.97.65-1.5-.11-.52-.5-1.03-1.17-1.01,0,0-.02,0-.03,0-1.07.28-2.76,2.17-2.96,3.66-.1.73.15,1.29.75,1.63.14.05.26.08.38.1.95.13,1.34-.81,1.69-1.64.19-.46.39-.94.68-1.24Z"/>
      <path class="cls-3" d="M499.13,430.45c-3.74.05-7.4,1.14-10.48,2.19-.6.21-.96.89-.8,1.51.11.47.48.82.94.88.02,0,.03,0,.05,0,.9-.2,1.81-.43,2.69-.66,2.55-.65,4.95-1.27,7.58-1.22.46,0,.83-.22,1.04-.62.24-.45.25-1.04.01-1.48-.21-.39-.58-.6-1.03-.59Z"/>
      <path class="cls-3" d="M484.38,449.01c.87-.33,1.77-.68,2.61-1.04,0,0,.01,0,.02-.01.43-.28.73-.75.77-1.26-.04-.59-.24-1.04-.61-1.34-.95-.77-2.82-.34-4.46.05-.5.12-.98.23-1.4.3,1.33-.61,2.74-1.03,4.11-1.43l.7-.21c.42-.24.66-.83.54-1.35,0-.01,0-.03-.02-.04-.61-1.09-1.95-1-3.13-.92-.59.04-1.14.09-1.6-.01-.01,0-.02,0-.04,0-.41.03-.84.05-1.29.06-1.84.06-3.92.12-5.09,1.67,0,.01-.01.02-.02.03-.3.69.06,1.27.51,1.51.22.12.48.17.73.12-.18.09-.36.18-.54.26-2.11,1.02-4.28,2.07-6.18,3.49-.03.02-.05.05-.06.08-.28.91-.25,1.53.09,1.88.71.75,2.57,0,4.21-.64.27-.11.53-.21.77-.3-2.89,1.88-5.52,4.24-7.87,6.34-.72.64-.86,1.74-.33,2.5.26.36.65.61,1.09.66,0,0,.01,0,.02,0,.44.05.86-.07,1.19-.36.59-.5,1.17-1,1.74-1.51,2.7-2.35,5.25-4.57,8.4-6.25,1.56-.91,3.38-1.61,5.14-2.29ZM477.19,444.91c.09-.08.18-.18.25-.31.21-.07.41-.13.62-.18.06-.01.13-.03.2-.04-.35.18-.71.36-1.07.53Z"/>
      <path class="cls-3" d="M476.44,457.71c.14-.62-.1-1.33-.57-1.69-.44-.33-1-.3-1.52.08-2.23,1.26-4.44,2.7-6.56,4.27-.13.09-.27.19-.43.3-.68.46-1.52,1.03-1.67,1.82-.07.36.02.74.26,1.11.21.3.52.5.88.54.02,0,.04,0,.07,0,1.62-.61,2.99-1.66,4.45-2.78,1.23-.94,2.5-1.92,3.93-2.6.62-.1,1.04-.49,1.18-1.05Z"/>
      <path class="cls-3" d="M555.82,409.09c-.18-.32-.48-.54-.81-.58-.32-.04-.66.08-.92.34-.24.24-.37.56-.36.86-.46,3.88-.28,7.16.55,10.03.1.45.38.76.77.87.05.01.1.02.15.03.4.05.83-.1,1.11-.42.28-.31.38-.73.26-1.18-1.1-3.58-1.31-6.53-.65-9.01.1-.31.07-.64-.1-.94Z"/>
      <path class="cls-3" d="M475.28,469.88c-1.32-.77-4.37.51-6.4,1.36-.63.26-1.18.49-1.52.6-.01,0-.03.01-.04.02-.34.24-.84.43-1.37.63-1.27.48-2.84,1.09-2.45,2.7.14.31.4.55.72.66.08.03.15.04.23.05.24.03.47-.01.68-.13.35-.2.7-.4,1.05-.6,2.63-1.5,5.36-3.05,8.33-3.57.24.18.54.21.83.08.32-.15.54-.46.58-.83,0-.02,0-.03,0-.05-.08-.42-.29-.74-.63-.93Z"/>
      <path class="cls-3" d="M652.56,479.71c.81-.21,1.61-.94,1.63-2.11.01-.03.02-.05.02-.08l-.05-1.6c-.17-5.08-.35-10.34-.98-15.43,0-1-.76-1.88-1.72-2.01h0c-.73-.04-1.29.16-1.67.59-.79.91-.61,2.65-.47,4.05.03.29.06.57.08.83,0,0,0,0,0,.01l.03.63c.06,1.16.12,2.25.16,3.56-1.41-1.74-2.76-1.85-3.58-1.34-1.01.63-1.69,2.45-.81,4.98,1.27,6.33,1.21,12.76,1.02,19.9-.01.63.21,1.23.64,1.69.36.39.83.64,1.32.71.1.01.19.02.29.02,1.23-.02,2.23-1.11,2.27-2.46.16-4.18.1-8.41-.18-12.56.53.66,1.35.81,2.03.63Z"/>
      <path class="cls-3" d="M597.54,542.79c.02.06.03.13.04.2,0,.05.04.1.08.12.01,0,.03,0,.04.01.03,0,.07,0,.1-.03l.62-.45c.06-.04.08-.13.05-.2-.03-.07-.1-.1-.17-.08-.22.08-.44.15-.66.23-.08.03-.12.11-.1.19Z"/>
      <path class="cls-3" d="M483.18,282.16c.12.08.24.12.37.14.34.05.68-.11.89-.45.44-1.26-.93-1.91-2.03-2.43-.49-.23-.95-.45-1.24-.71-3.2-1.77-7.07-2.81-11.53-3.09-.23-.02-.46.07-.65.24-.19.17-.3.42-.32.67-.03.54.35,1,.84,1.01,5,.25,9.73,1.84,13.67,4.61Z"/>
      <path class="cls-3" d="M568.88,351.91c1-.91,1.95-1.76,2.88-2.63.36-.34.51-.78.43-1.25-.09-.53-.47-.99-.94-1.15-.42-.15-.85-.04-1.21.31t0,0c-.96.95-1.96,1.91-2.94,2.84-4.93,4.71-10.03,9.57-12.56,16.13-.1.51.03.95.37,1.25.19.16.42.26.66.29.25.03.51,0,.73-.11.4-.2.64-.58.67-1.09,2.28-5.89,7.17-10.31,11.9-14.58Z"/>
      <path class="cls-3" d="M556.49,237.82c-.25-.69-.56-1.18-.89-1.46-.29-.75-.96-1.16-1.68-1.01,0,0-.01-.01-.02-.02-.2-.32-.44-.43-.62-.44-.25-.03-.52.07-.75.27-.04.03-.06.09-.05.14v.1c.07.37.1.73.13,1.1,0,.12.02.24.03.36,0,.03.03.08.05.1.01.45.03.89.04,1.33.09,2.39.17,4.65-.18,7.2-.18,1.66-.47,3.34-.87,5.13-.51-1.89-.98-3.49-1.47-5.01-.02-.05-.05-.09-.1-.1-.33-.08-.59-.29-.74-.58-.23-.42-.42-.87-.61-1.3l-.12-.27s-.02-.03-.03-.04c-.22-.45-.46-.91-.79-1.46,0-.02-.01-.03-.02-.05-.38-.62-.83-1.35-1.23-2.15-.28-.54-.53-1.13-.76-1.7-.09-.21-.17-.41-.26-.62,0-.02-.02-.03-.03-.05-.41-.9-.83-1.8-1.25-2.7-.42-.86-.91-1.76-1.56-2.84,0-.02-.02-.03-.03-.04-.64-.99-1.3-1.97-1.94-2.93-.32-.47-.64-.95-.96-1.43-.53-.8-1.06-1.66-1.52-2.43-.54-.83-1.09-1.63-1.63-2.36l-.08-.12c-.05-.07-.11-.14-.17-.22,0-.02-.02-.04-.03-.06-.03-.04-.06-.07-.1-.11l-.08-.09c-.21-.25-.42-.5-.66-.76-1.5-1.25-3.01-2.51-4.52-3.78l-.28-.22s-.02-.01-.04-.02l-.03-.02s-.08-.03-.12-.02c-.02,0-.05.02-.07.04-.04.05-.06.12-.03.18.09.2.16.42.24.62.03.09.06.18.09.26l.08.22c.06.16.12.33.18.5l.05.16c.11.37.2.74.28,1.07.02.1.05.19.07.29.05.19.1.38.13.57.08.4.15.8.22,1.2.06.35.11.71.16,1.15,2.79,9.64,1.86,19.84.52,30.31-2.28-3.95-4.86-7.52-7.69-10.62-.21-.17-.43-.34-.63-.51-.17-.14-.33-.29-.5-.43l-.12-.11s-.08-.04-.13-.02c-.02,0-.04.02-.06.03-.05.05-.07.13-.03.2.19.37.39.76.6,1.21.41.88.79,1.85,1.18,2.97l.49,1.37c.04.12.08.24.13.36.07.18.13.37.19.56.15.52.31,1.04.46,1.55.22.73.45,1.48.65,2.22.46,1.63.9,3.26,1.34,4.9.09.28.08.55-.02.79-.09.19-.22.34-.38.45-.06.04-.08.11-.06.18.4,1.37.79,2.86,1.21,4.62-.21-.36-.43-.71-.65-1.06-2.62-5.04-5.27-9.34-6.02-10.54-.18-.29-.37-.59-.55-.88-.01-.02-.03-.03-.05-.05-.22-.13-.39-.33-.51-.57l-.4-.85c-4.37-6.5-9.97-12.45-16.64-17.7-2.22-1.89-4.61-3.59-7.08-5.05-2.29-1.48-4.67-2.89-7.08-4.19-.46-.28-1.06-.17-1.44.25-.99-.34-1.82-.6-2.59-.81-.7-.31-1.12-.03-1.3.17-.31.34-.41.9-.23,1.37.17.44.54.69,1.02.69.07.04.14.07.21.11.21.11.41.2.56.36,1.9,1.59,3.93,3.1,5.88,4.57,1.38,1.03,2.8,2.1,4.16,3.17,6.72,7.3,12.08,15.43,15.94,24.17-3.3-2.6-6.7-4.8-10.1-6.54-1.82-1.35-3.55-2.5-5.32-3.5-1.27-.4-2.13.4-2.47,1.2-.03.08,0,.16.06.2.24.13.48.29.71.43.52.31,1.03.67,1.49,1,0,0,.01.01.02.02l.18.13c.58.42,1.16.88,1.79,1.4l.25.21c.62.53,1.17,1.02,1.69,1.52.48.47.91.9,1.31,1.32.26.28.52.55.79.83.52.54,1.05,1.09,1.54,1.68.24.28.48.57.72.85.24.28.47.56.71.84l.2.23c.21.25.43.51.63.78,0,.01.02.02.03.03,0,.02.01.04.03.06.02.03.04.06.07.09.02.02.04.05.05.07,0,.01.02.02.03.03.02.03.04.05.06.08,0,0,0,.02.01.03l.38.51s.01.02.02.03c.32.44.65.88.98,1.34,1.3,1.43,2.58,2.98,3.9,4.7,2.3,5.06,4.88,10.37,8.12,16.68-4.49-3.19-9.73-5.78-16-7.91-.2-.35-.55-.56-.96-.55-.44.01-.83.26-1.03.66-.04.07-.01.16.05.2.51.34,1.04.72,1.61,1.16.05.04.11.09.16.13l.11.09c.42.34.85.71,1.26,1.09l.2.19c.14.13.29.26.43.4.36.33.71.68,1.05,1.02l.05.04c.13.12.28.25.39.38.28.32.56.63.84.95.27.31.54.61.81.92.69.78,1.34,1.63,1.97,2.45.17.23.34.45.52.68.06.07.12.16.18.25.03.05.06.09.09.13.12.18.24.35.36.53.12.17.24.35.37.54,4.81,5.58,8.49,12.9,11.55,23.01,3.56,16.14,2.4,33.45,1.28,50.19l-.19,2.88c-.14.46-.27,1.1-.11,1.63l-.04.6s0,.06.01.09c0,.03.02.05.04.07.02.03.05.05.07.07l-.1.35s0,.04,0,.06l.03.46c0,.07.05.14.12.15,0,0,0,0,.01,0,.07,0,.13-.04.14-.12.08-.24.16-.49.24-.73l.34-1.05c.2-.62.39-1.23.6-1.84.13-.38.26-.77.39-1.15l.39-1.16c.16-.49.33-.98.5-1.46.42-1.2.89-2.47,1.51-4.11.16-.42.32-.84.48-1.26.63-1.62,1.16-2.96,1.68-4.2,1.64-3.93,3.13-7.4,4.54-10.61,1.56-3.55,3.28-7.11,4.75-10.13.59-1.22,1.25-2.43,1.9-3.6.18-.33.36-.66.54-.99.8-1.46,1.66-2.92,2.51-4.35,1.86-3.15,3.6-5.93,5.33-8.49.92-1.36,1.82-2.7,2.72-4.04.52-.78,1.11-1.53,1.68-2.26.26-.33.52-.66.77-1,.59-.79,1.28-1.71,2.02-2.57l3.12-3.62s0,0,0,0c.04-.05.08-.09.12-.14,0,0,0,0,0,0,.02-.02.04-.04.05-.06,0,0,.02-.02.03-.02.4-.45.83-.89,1.21-1.26.41-.42.82-.84,1.22-1.26.41-.42.82-.84,1.23-1.26.79-.82,1.64-1.61,2.47-2.37.3-.27.59-.55.88-.82,1.1-1.03,2.18-2,3.31-2.94.28-.23.55-.47.83-.7.87-.75,1.78-1.52,2.69-2.24,0,0,.01,0,.02-.01,1.35-1.05,2.7-2.09,4.05-3.13.81-.63,1.67-1.24,2.5-1.84.32-.23.64-.45.95-.68,0,0,.02,0,.03-.02,1.8-1.32,3.69-2.57,5.51-3.78l1.08-.72c.66-.44,1.36-.85,2.03-1.25.34-.2.68-.4,1.02-.61.82-.51,1.67-1.03,2.55-1.51.92-.52,1.83-1.03,2.75-1.55l.83-.47c.31-.17.65-.32.97-.46.11-.05.23-.1.34-.15l2.31-1.08c.92-.43,1.87-.79,2.84-1.16,1.03-.41,2.03-.78,2.97-1.11.01,0,.03,0,.04,0,.43-.15.85-.29,1.28-.43.53-.18,1.07-.36,1.61-.55.01,0,.03,0,.04,0l.07-.02c.07-.02.11-.1.1-.18-.07-.51-.32-1.24-1.17-1.79-1.88-1.22-5.61-.87-10.5.99-6.11,2.02-12.24,4.61-18.24,7.71,1.88-2.43,3.82-4.92,5.81-7.25.5-.82,1.33-1.71,2.21-2.65,1.24-1.33,2.52-2.7,3.18-4.15,8.13-9.21,17.02-17.63,26.42-25.03.96-.82,1.98-1.61,2.97-2.37.76-.59,1.54-1.14,2.27-1.65.07-.05.14-.1.2-.15.08-.06.17-.12.25-.18.06-.04.09-.12.07-.19-.02-.05-.06-.09-.1-.1-.02,0-.04,0-.05,0-1,.07-2,.14-3,.2-.03,0-.05.01-.07.03-1.74.21-3.33.45-4.85.74,0,0-.02,0-.03,0l-.8.17s-.03,0-.04.02h-.02c-2.41.54-4.55,1.1-6.54,1.72l-1.47.47c-1.01.32-2.03.65-3.06.98l-2.11.78s-.01,0-.02,0l-.41.15c-.75.28-1.53.56-2.3.86-.02,0-.03,0-.05,0,0,0,0,0,0,0l-3.46,1.36c-13.28,6.14-24.57,14.63-33.57,25.22,0-.3.01-.53.03-.7-.42-11.23-3.77-17.39-6.52-20.58Z"/>
      <path class="cls-3" d="M522.21,610.87c-.2.07-.41.14-.61.21-.07.02-.12.1-.1.18.01.07.06.11.12.12.01,0,.02,0,.04,0,.26-.04.52-.08.78-.13.05,0,.1-.05.12-.11.01-.05.03-.09.05-.13.02-.06.02-.12-.02-.17-.04-.05-.1-.06-.15-.05l-.22.08Z"/>
      <path class="cls-3" d="M607.77,593.13c-.46.61-.41,1.5.11,1.99.11.13.26.26.49.29.17.02.38,0,.63-.13,2.47-1.16,7.64-10.4,7.51-12.02-.1-.56-.42-.95-.89-1.09-.53-.17-1.14.01-1.54.44-.34.37-.46.85-.33,1.37-1.15,2.84-3.09,5.38-4.98,7.83-.34.44-.68.88-1.01,1.32Z"/>
      <path class="cls-3" d="M618.39,587.7c-.36-.37-.94-.48-1.41-.27-.41.18-.67.58-.72,1.11-2.43,4.93-6.18,9.05-9.81,13.03-.55.61-1.1,1.21-1.65,1.82-.26.29-.4.69-.39,1.12.01.46.2.9.51,1.18.22.21.49.34.77.38.48.06.99-.12,1.35-.54l.89-1.06c3.95-4.73,8.03-9.61,10.74-15.41.16-.53.07-1.01-.27-1.35Z"/>
      <path class="cls-3" d="M612.15,602.28c-.55,0-.98.78-1.36,1.46-.12.22-.23.42-.33.57-2.15,2.81-5.05,4.92-7.85,6.95-.95.69-1.93,1.4-2.85,2.13-.75.57-.95,1.68-.45,2.5.34.42.71.65,1.12.71.04,0,.08,0,.12.01,1,.05,2.03-.96,2.93-1.85.43-.43.84-.83,1.23-1.1.73-.75,1.56-1.49,2.45-2.26,2.68-2.35,5.45-4.78,5.9-8.27,0-.03,0-.07-.02-.1-.27-.51-.56-.76-.88-.76Z"/>
      <path class="cls-3" d="M901.57,446.32c-.51-.21-1.01-.43-1.51-.66-.85-.38-1.75-.81-2.65-1.26-.1-.05-.2-.1-.29-.15l-.22-.11c-.71-.36-1.41-.74-2.09-1.12-.23-.13-.46-.25-.69-.38-1.71-.97-3.42-2.03-5.1-3.14-.19-.13-.38-.26-.57-.39-.14-.1-.28-.2-.43-.3-.68-.91-1.64-1.58-2.7-1.88-4.1-3.01-7.74-6.24-10.8-9.6-1.98-2.18-3.63-4.3-5.03-6.46-.2-.32-.4-.64-.6-.95-1.56-2.57-2.67-5.07-3.4-7.63-.1-.36-.13-.74-.08-1.13,0-.04,0-.07-.02-.1-4.87-8.38-8.88-18.07-12.26-29.61,2.56,1.99,5.02,4.15,7.31,6.43,2.78,2.8,5.23,5.73,7.26,8.67,1.14,2.06,2.27,4.15,3.23,5.91.25.48.68.82,1.19.96.51.14,1.03.06,1.47-.22.35-.19.58-.51.67-.95.89-4.18-10.47-19.39-14.21-24.39-.37-.49-.66-.88-.85-1.15-5.04-6.15-11.16-13-18.43-17.22,3.38-1.41,7.55-3.65,9.47-5.82,2.54-2.11,4.3-5.3,5.08-9.22.27-.96-.2-1.62-.73-1.93-.2-.27-.46-.47-.81-.64-.53-.21-1.15-.09-1.64.3-.47.37-.75.93-.75,1.51-3.46,6.57-12.9,3.09-14.76,2.33-2.48-1.11-4.7-2.59-6.54-3.89-1.35-1.15-2.72-2.37-4.18-3.73-6.9-7.98-15.02-15.49-24.84-22.96-8.74-6.8-19.2-11.06-31.11-12.66-.32-.04-.64-.08-.97-.12-10.82-1.32-22.81-.37-34.66,2.74-.35.11-.81.21-1.16.29-1.23.12-2.48.33-3.7.62.02-.43-.11-.87-.39-1.36-.02-.12-.06-.24-.1-.36-.06-1.19-.39-2.35-.97-3.43-.03-.07-.07-.14-.11-.21l-.03-.06c-.08-.15-.17-.29-.27-.43l-.05-.07s-.06-.09-.09-.13c-.57-.83-1.24-1.55-1.98-2.14l-1.38-1.28c-5.69-5.29-11.58-10.75-18.42-14.53-4.18-2.56-8.77-4.77-14.03-6.75-4.97-2.51-9.71-4.47-14.47-5.99,1.16-.36,2.69-.55,4.3-.75,4.68-.58,9.98-1.23,9.63-6.34-.37-3.08-3.16-3.45-5.59-3.77-.73-.1-1.42-.19-2.04-.35-1.04-.16-2.08-.32-3.13-.49-5.36-.84-10.89-1.7-16.38-2.32.79-2.97-1.75-6.97-3.27-9.37l-.1-.16c-6.18-8.44-12.99-12.8-20.23-12.96-.04,0-.08-.01-.12-.02,7.38-5.57,21.7-14.02,36.82-10.18.58.17,1.23,0,1.71-.47.61.02,1.26-.38,1.55-.97.28-.58.19-1.24-.26-1.81-1.03-1.46-2.55-2.29-4.03-3.08l-.25-.14c-19.06-10.96-43.94-11.3-68.26-.93-3.17,1.31-6.35,2.8-9.73,4.53,10.08-12.68,20-22.39,30.3-29.67.03-.02.05-.04.06-.07.47-1.3.41-2.19-.19-2.66-4.16-3.31-34,16.91-36.27,18.83l-.45.36c-5.36,4.28-11.42,9.12-16.05,14.86.9-3.15,1.83-6.23,2.78-9.15,5.06-14.7,13.21-27.79,23.58-37.87.23-.24.36-.51.41-.81.22-.16.37-.4.4-.67,0-.03,0-.06-.01-.08-.2-.49-.58-.77-1.12-.85-.02,0-.03,0-.05,0-.54-.31-1.13-.21-1.57.25-2.53.87-6.13,3.65-8.72,5.85-2.41.85-5.2,3.88-7.23,6.1-.71.77-1.32,1.44-1.81,1.9-7.01,7.75-12.82,17.12-17.27,27.85-.73-1.75-1.44-3.55-2.13-5.29-1.7-4.32-3.47-8.79-5.72-12.89-2.67-4.89-5.94-9.42-9.69-13.47-3.35-4.35-7.2-7.66-11.45-9.83-.51-.2-1-.11-1.39.25-.44.41-.67,1.09-.56,1.71.1.55.43.95.92,1.11.04.02.08.05.12.08.02.01.04.03.06.04.18.75.76,1.29,1.46,1.33,2.84,1.92,5.44,4.21,7.95,6.96,5.28,6.74,11.57,19.72,11.6,43.24,0,.17.03.35.08.52.06,1.34.26,2.35.61,3.14.35,1.63,1.24,2.56,2.71,2.84,1.42.38,2.71.15,3.83-.66,1.39-1.02,2.48-2.98,3-5.38.28,2.97.93,5.7,1.94,8.13.21.44.59.66,1.05.62.45-.04.86-.35,1.05-.76.51.09,1.04-.03,1.43-.33.39-.3.63-.75.69-1.27.16-.48.35-.97.55-1.46.02-.03.03-.07.05-.11v-.04c6.3-15.22,25.69-26.8,39.15-34.61-7.69,7.07-15.18,15.56-22.86,25.92-.32.56-.8,1.18-1.32,1.84-1.54,1.95-3.28,4.15-1.53,6.23.64.54,1.56.6,2.26.15,2.22-1.51,5.16-3.45,8.21-5.17,13.79-8.18,30.19-10.91,51.56-8.56-12.18,6.01-21.17,12.98-27.47,21.33-.49,1.03-1.45,2.3-2.47,3.65-2.03,2.69-4.33,5.73-4.04,8.29.12,1.02.66,1.9,1.6,2.62,1.52.97,3.55.53,4.63-1,.46-.65.92-1.3,1.38-1.95l.45-.64c8.07-5.91,19.84-4.81,26.81,2.52.39.42.69.94.93,1.42-3.68-.02-7.08.16-10.39.54-.45.1-1.06.21-1.76.34-3.2.57-8.04,1.43-9.54,3.76-.41.63-.54,1.34-.39,2.11.21.78.86,1.36,1.66,1.48,0,0,.02,0,.03,0,.73.1,1.39-.21,1.79-.83,11.24-4,23.24-1.98,34.84-.03,1.18.2,2.35.39,3.51.58-1.11.34-2.55.53-4.06.74-3.3.45-7.04.96-8.73,3.12h-.05c-.44-.54-.99-.74-1.53-.56-.64.21-1.19.94-1.31,1.73-.1.71.15,1.33.7,1.71.01,0,.02.01.04.02l1.33.41c.26,1.16,1.01,2.12,2.09,2.65,2.49.75,5.13,1.37,7.68,1.96,4.07.95,8.28,1.94,12.2,3.52,5.2,1.9,10.32,4.36,15.64,7.52-19.44-4.35-37.05-.86-57.97,4.14-.52-.27-1.1-.21-1.61.15-.61.43-1.01,1.2-.98,1.91.02.58.33,1.06.87,1.34.02,0,.04.01.06.02,3.25-.02,6.82-.31,11.23-.91,11.25-.11,22.87,2.99,36.5,9.76-5.54-.18-10.13.07-14.86.82-.79-.13-1.64.18-2.24.88-.61.7-.85,1.64-.65,2.51.17.86.75,1.57,1.57,1.91.23.48.71,1.05,1.64,1.2,9.37.94,17.11,3.31,23.68,7.23,2.25,1.19,4.47,2.65,6.61,4.06,1.77,1.17,3.61,2.37,5.47,3.43-1.71,1.86-2.02,3.44-.92,4.86,1.14,1.07,2.59.85,4.41-.68l.04-.02s.08-.04.12-.07c.49-.25.92-.6,1.35-.93l.26-.2c.97-.75,1.97-1.53,2.99-2.27.02-.01.05-.04.08-.06h0s.02-.01.04-.02c1.92-1.33,3.95-2.57,6.2-3.79,2.13-1.11,4.46-2.13,7.11-3.13,2.71-.97,5.46-1.78,8.16-2.4,3.25-.7,6.44-1.17,9.48-1.41l.45-.04c.75-.05,1.51-.06,2.25-.08h.61c3.93.08,7.88.38,11.69.68,1.56.23,2.98.48,4.35.77,2.55.57,5.33,1.39,8.04,2.35l.23.08c2.49.97,4.86,2.07,7.04,3.25,1.91,1.07,3.74,2.24,5.42,3.48.14.11.28.22.42.34.1.09.21.17.31.25,2.52,2.27,4.96,4.77,7.26,7.44.08.1.15.2.23.31.12.16.25.33.37.51-5.04-4.48-10.55-8.7-17.13-10.19-.8-.16-1.49.2-1.86.98-.03.06-.02.13.02.17.1.12.2.25.29.37.07.09.13.18.2.26l.13.16c.11.14.22.28.32.42.13.19.27.38.4.56l.18.25s.01.03.02.04c.28.4.57.8.86,1.2.91,1.3,1.79,2.73,2.85,4.67l.06.1c.04.05.07.11.11.21l.21.38s.03.04.03.04c.16.23.33.46.48.69,3.87,5.62,6.69,12.16,9.41,18.49l.69,1.61c1.56,3.87,3.13,7.93,4.64,11.86,10.01,25.99,20.35,52.86,44.03,65.93.3.16.61.26.92.3,1.67.22,2.95-1.29,3.19-2.84.08-.12.17-.25.22-.42.23-.75.01-1.34-.67-1.79-.21-.3-.47-.56-.79-.78-1.08-.72-2.23-1.54-3.5-2.5-10.93-10.15-18.71-25.49-24.48-48.26.04,0,.08.01.12.02,10.29,14.97,22.27,29.85,40.1,37.46.22.04.45.1.69.17,4.26,9,8.46,15.95,13.18,21.81-.75-.12-1.51-.33-2.32-.56-3.32-1.76-6.49-4.08-9.43-6.9l-.41-.42c-1.02-1.03-2.07-2.1-2.93-3.31-.11-.6-.54-1.09-1.13-1.27-.62-.19-1.26-.01-1.68.46-.44.44-.61,1.13-.44,1.8-.12.41-.12.82-.02,1.15.84,4.25,2.24,8.87,4.05,13.36,2.9,7.05,6.57,13.94,10.91,20.49-1.52-.17-2.81-.35-4.03-.58-2.52-.52-5.07-1.21-7.59-2.06-2.68-.96-5.44-2.16-8.19-3.57-2.73-1.44-5.47-3.12-8.15-4.97-2.95-2.11-5.76-4.4-8.6-7-3.05-2.87-6.04-6.05-8.88-9.45-2.45-2.96-5.01-6.53-7.62-10.58-1.93-3.08-3.78-6.35-5.49-9.72-1.69-4.93-3.22-10.09-4.55-15.33-3.1-11.4-7.36-27.02-13.8-40.21-7.08-14.49-15.85-24.34-26.82-30.12-9.25-4.19-19.15-5.23-26.75-5.67-.2-.01-.41-.03-.63-.04-1.95-.15-4.63-.35-5.08,2.4-.1,3.08,2.62,3.33,5.03,3.55.89.08,1.73.16,2.42.37,3.96.32,7.76,1.04,11.3,2.16-7.14,1.7-13.63,5.7-19.29,11.89-5.17,5.65-9.43,12.99-12.33,21.2-2.71,5.12-4.63,10.28-5.68,15.31-.75,2.32-1.3,4.51-1.69,6.72-.85,3.91-3.03,17.12,4.83,22.79.01,0,.02.01.04.02,2.38.79,5.18.37,7.48-1.13,2.18-1.41,3.69-3.64,4.16-6.11.46-2.12-.02-3.83-1.32-4.69-1.49-.98-3.74-.59-5.5.94-1.45-.78-2.48-1.83-3.17-3.22.34-.55.5-1.15.47-1.74l-.02-.45c-.12-3.22-.24-6.55.13-9.76.49-1.53,1.04-3.05,1.53-4.39.21-.57.41-1.11.59-1.63,2.8-7.49,8.14-14.81,15.85-21.77,2.96-2.35,6.2-4.59,9.9-6.84-2.44,3.52-4.42,7.42-5.89,11.57-.31.7-.2,1.54.27,2.11.33.39.72.6,1.18.6.66,0,1.44-.43,2.1-1.16,1.45-1.32,2.89-2.74,4.4-4.24.96-.95,1.95-1.93,2.92-2.87.75-.54,1.49-1.23,2.3-2.13,3.31-2.95,7.79-6.43,13.16-7.24,3.08,4.36,5.71,9.35,8.04,15.24-1.43.51-2.71.98-4.02,1.48-11.47,4.39-22.35,11.64-32.35,21.53-.24.26-.48.52-.72.79-2.18,2.37-4.44,4.83-5.65,7.92-.1.66.02,1.2.36,1.6.26.32.61.48,1,.45.49.33,1.15.36,1.7.06.49-.26.81-.75.86-1.33,9.2-12.11,25.32-19.42,43.16-19.54.95,3.26,1.86,6.6,2.74,9.83.27.99.54,1.99.81,2.98-2.14-.81-3.88-1.37-4.81-1.52-6.51-1.5-14.97-2.87-22.71-.07-.13.03-.25.09-.36.17-.4.14-.65.41-.76.87,0,.11,0,.19.01.26v.03c-.08.47.02.89.28,1.14.18.17.51.33,1.07.14.18-.05.36-.09.54-.13.12-.02.23-.05.35-.08h.01s.1.05.16.06c11.4,2.36,22.51,8.76,32.13,18.5,1.88,5.82,3.91,11.39,6.03,16.55-5.41-3.77-11.73-6.75-19.83-9.35-.07-.02-.14.01-.17.08-.03.07-.01.15.05.19.16.11.31.23.47.35.85.67,1.69,1.39,2.5,2.09l1.36,1.16c1.53,1.29,3.12,2.63,4.46,4.18.32.37.66.81,1.05,1.36l.17.25c.04.05.07.1.1.16l.08.13c.3.45.53.83.73,1.19.07.13.14.26.2.39l.08.15c.18.36.33.66.47.97l.02.04c.04.09.08.19.12.29l.07.17c.15.37.3.73.43,1.1.02.07.04.13.06.2.02.05.03.11.05.16.14.42.24.77.33,1.1l.02.06c.02.07.04.14.05.21.13.53.23,1.01.31,1.48.12.74.15,1.52.1,2.32-.02.37-.07.75-.15,1.19-.03.15-.05.31-.09.46-.05.23-.12.48-.21.76-.01.04-.02.08-.04.12-.01.05-.03.09-.04.14-.01.04-.03.08-.05.12-.02.04-.03.08-.05.12-.13.34-.27.65-.41.94-.08.16-.16.31-.24.46-.15.27-.3.53-.46.78-.32.51-.63.95-.93,1.34-.6.74-1.26,1.47-2.01,2.24-11.99,6.37-27.22,3.22-37.63.29-14.57-4.63-27.28-12.63-36.76-23.12-6.19-7.82-10.04-15.95-11.43-24.18.13-.46.04-.98-.22-1.35-.24-.59-.78-1-1.38-1.05-.46.03-.86.24-1.16.63-1.28,1.62-.9,5.96-.62,9.14.09,1.04.17,1.95.17,2.54,1.87,16.41,8.97,33.07,21.11,49.55-.47-.26-.97-.54-1.51-.83-5.47-3.03-12.97-7.18-15.44-5.03-.82.71-1.01,2.07-.54,4.05,5.02,12.6,5.21,22.28.57,28.79-1.91-6.37-5.66-12.13-9.44-17.41-.19-.26-.39-.55-.6-.86-1.7-2.47-4.02-5.85-7.03-3.52-1.94,1.55-1.33,4.16-.59,6.24l.17.64c.85,3.27,1.73,6.65,2.44,10.06-.69,9.03-2.55,17.27-5.53,24.51-1.31,3.27-2.83,6.66-4.29,9.93-6.44,14.4-13.09,29.29-8.57,44.95.96,3.72,2.99,8.6,7.2,11.02-2.1.46-3.86,1.77-4.56,3.44-.42,1.01-.67,2.62.57,4.61l.27.29c.62.67,1.2,1.3,1.72,1.95,2.07,3.36,2.91,5.24,1.14,9.72-3.07-2.71-5.5-3.49-7.37-2.33-.98.59-1.68,1.6-2,2.85-1.97,1.2-3,3.75-2.46,6.09,2.43,8.95,1.88,18.42-1.55,26.76-.25-2.78-.75-5.64-1.5-8.5-2.33-14.77-9.76-27.09-20.38-33.78-.75-.63-1.57-.76-2.29-.38-.07.04-.1.13-.07.2.17.44.34.93.5,1.51.28.96.51,1.96.7,3.06v.08c.05.18.08.35.11.53.04.23.07.45.1.68,0,.02,0,.03.01.04,2.47,5.41,4.36,14.66-7.64,32.32-1.84,2.17-3.9,4.4-6.13,6.62-2.98,2.9-6.57,5.98-10.67,9.15l-.15.12c-.66.49-1.31.96-1.91,1.38,1.54-2.55,2.72-4.96,3.59-7.34.43-.91.36-1.78-.2-2.41.13-.43.05-.96-.23-1.31-.25-.33-.62-.46-1.01-.35-.02,0-.05.02-.07.04-.07.07-.13.14-.2.21l-.11.12c-.42.09-.75.37-.9.78-.37.24-.63.61-.71.99-.47.54-.94,1.09-1.41,1.64-1.67,1.96-3.41,3.99-5.39,5.73-5.12,4.93-10.93,8.55-15.42,11.16-3.3.84-6.66,1.45-9.95,1.82-1.49-.13-2.99-.3-4.59-.53,3.92-1.37,7.43-3.2,10.45-5.45l.22-.16c.06-.04.08-.13.05-.2-.03-.07-.11-.1-.17-.07h-.04s0,.02,0,.02l-.03.02h0c-2.04.81-4.25,1.47-6.76,2h-.07s-.04,0-.05.01c-2.07.44-4.22.72-6.41.84-1.14.07-2.25.1-3.31.08,0,0-.01,0-.03,0-1.1-.02-2.08-.08-2.99-.18l-.54-.07s-.01,0-.02,0c-1.35-.15-2.69-.32-4.07-.55l-.35-.12c-.8-.27-1.63-.55-2.45-.85-7.11-2.44-12.43-5.09-16.72-8.33-1.77-1.76-3.48-3.67-5.06-5.68,3.63-1.34,6.7-2.72,7.66-3.48.05-.04.11-.08.16-.12h0c4.57-1.88,8.16-3.65,10.38-5.1,13.67-7.18,25.94-19.14,35.5-34.58l.11-.05c.07-.03.14-.07.18-.09.63-.18,1.26-.36,1.88-.55.03,0,.06-.03.08-.06.13-.19.29-.37.48-.56.22-.23.49-.36.78-.51.28-.13.54-.23.82-.31.12-.03.23-.05.35-.08.07-.01.13-.02.19-.04.42-.08.78-.12,1.13-.05.11.03.23.07.34.11.03.01.08,0,.11,0,.02,0,.04,0,.06,0,.34-.1.71-.24,1.12-.41,2.33-.95,4.58-2.02,6.29-2.86,0,0,.01,0,.02,0,0,0,.03-.01.04-.02.01,0,.02-.01.05-.02,0,0,.04-.02.04-.02.01,0,.02-.01.05-.02,3.65-1.97,7.42-4.11,11.5-6.53.01,0,.03,0,.04-.02.66-.4,1.32-.8,2.04-1.22.01,0,.03,0,.04-.01.02-.01.05-.03.07-.05.01,0,.03-.02.04-.02.01,0,.02-.01.03-.02,0,0,.02-.01.03-.02,0,0,0,0,.01,0t0,0s.01,0,.01-.01c.68-.44,1.37-.89,2.05-1.33.69-.44,1.38-.89,2.06-1.33.52-.34,1.04-.72,1.53-1.09.22-.17.45-.33.68-.5l.52-.38c.52-.37,1.03-.75,1.55-1.11,0,0,.02-.01.02-.02.04-.02.07-.05.1-.07.02-.01.03-.03.05-.05.92-.72,1.85-1.43,2.77-2.14l.89-.68c.15-.11.29-.23.44-.35l.24-.19s.02-.01.03-.02c.39-.31.77-.62,1.16-.93l.1-.08c.34-.28.69-.55,1.03-.82.29-.23.58-.46.87-.7.69-.55,1.41-1.13,2.1-1.71,1.14-.97,2.29-1.94,3.44-2.89l.22-.19s.02-.02.03-.04c.71-.64,1.42-1.28,2.13-1.92l.33-.3s.03-.02.05-.03l.03-.03c.48-.43.95-.87,1.43-1.3,0,0,.01-.01.02-.02l.24-.22s.02-.02.03-.03c1.38-1.27,2.43-2.26,3.42-3.2.69-.67,1.39-1.32,2.09-1.98.71-.67,1.42-1.34,2.12-2.01.18-.17.35-.34.53-.51.41-.39.83-.79,1.23-1.2.32-.34.65-.67.97-1,.43-.45.86-.89,1.29-1.33.02-.02.03-.03.03-.05.67-.77,1.34-1.53,2.01-2.29l.19-.22c.07-.08.14-.16.21-.25,7.86-11.23,13.76-23.62,17.56-36.82,2.59-9.02,5.53-19.24,5.15-29.38.5-5.66.5-11.29,0-16.72v-.39c-.04-.93-.07-1.86-.11-2.8-.04-.28-.16-.54-.36-.77-.17-1.23-.35-2.37-.55-3.44v-.26c-.02-.44-.03-.88-.06-1.35-.65-2.42-1.46-4.8-2.4-7.06-.03-.07-.1-.1-.17-.08-.07.02-.11.09-.11.16v.13s0,.02,0,.02c.01.29.03.59.04.88l.02.42s0,.1,0,.15c0,.05,0,.09,0,.14.03.72.04,1.47.03,2.24v.13c0,.05,0,.11,0,.17v.2c-.02.72-.05,1.44-.07,2.16v.3s-.02.03-.02.04h0s0,.08,0,.08c-.03,1.16-.15,2.34-.26,3.49-.03.3-.06.6-.09.9-.16,1.57-.35,3.17-.54,4.72,0,.14-.02.27-.04.42,0,0,0,.04,0,.04-.04.37-.08.75-.11,1.14-.02.41-.04.82-.07,1.22,0,.02-.01.03-.02.05-.02.17-.06.34-.09.52-.07.62-.16,1.22-.26,1.88-.03.23-.06.46-.09.68-.09.67-.18,1.37-.3,2.04-.14.73-.28,1.46-.43,2.19-.15.75-.3,1.5-.44,2.26-.02.15-.04.3-.07.45-.02.15-.05.3-.06.44-.02.13-.04.25-.05.38-.05.36-.1.74-.22,1.07-.1.33-.27.64-.48.93-.01.02-.02.04-.03.06-3.63,14.5-10.49,28.77-17.34,42-3.7,5.19-7.8,10.17-11.71,14.84,1.24-3.71,2.16-7.53,2.74-11.36.52.64,1.32.9,2.18.69.99-.25,1.7-1.08,1.82-2.12.09-1.17.05-2.37.02-3.53-.02-.7-.04-1.43-.04-2.13.23-6.71-1.8-13.11-4.03-19.02-.1-.35-.36-.65-.7-.82-.35-.17-.75-.18-1.11,0-.33.15-.6.44-.75.81-.15.38-.16.79-.02,1.15,1.49,4.21,2.36,8.16,2.66,12.06-.75-.64-1.47-.91-2.14-.81-.64.1-1.21.54-1.67,1.28-.1.06-.22.14-.31.24-.03.03-.05.07-.05.12,0,.04.02.09.05.11.04.03.07.07.1.12l.03.03c.1.12.18.26.24.42l.04.11c.05.14.1.28.14.43l.02.07s0,.02,0,.03c.21.74.24,1.54.24,2.15,0,.28,0,.56-.01.83,0,.33-.03.67-.07,1.03-.11,1.04-.34,2.09-.57,3.08l.14.03h-.15c-.15.65-.34,1.34-.59,2.15-.06.19-.12.38-.18.57l-.04.11c-.17.52-.35,1.04-.54,1.55l-.07.19c-.06.15-.11.31-.17.46-.52,1.33-1.14,2.77-1.89,4.39-.6,1.71-1.31,3.43-1.94,4.94-.44,1.06-.98,2.11-1.49,3.09-.63,1.21-1.16,2.19-1.67,3.07,0,0,0,.02-.01.03-.37.67-.75,1.35-1.13,2.02l-.66,1.18c-.37.66-.74,1.32-1.12,1.98-.18.3-.36.6-.54.9-.12.19-.23.38-.34.57l-.04.07c-.31.52-.62,1.04-.93,1.54-6.95,9.12-16.24,16.59-27.62,22.2-1.72.83-3.55,1.63-5.59,2.46.24-2.17.51-4.98.54-7.84l-.02-.28c-.03-.39-.07-.77-.1-1.15l-.04-.46s0-.04,0-.06c-.09-.84-.16-1.66-.24-2.49l-.11-1.09s0-.03-.01-.04l-.06-.57c-.02-.18-.04-.36-.06-.55-.02-.18-.04-.37-.06-.58l-.59-1.77s0-.03,0-.05l-.03-.08c-.29-.88-.57-1.75-.87-2.62-.03-.09-.06-.18-.09-.28l-.12-.37c-.12-.36-.23-.72-.34-1.09-.2-.57-.39-1.15-.59-1.72l-.36-1.08c-.04-.14-.09-.28-.15-.45,0-.02-.01-.03-.02-.04l-.11-.34c-.02-.07-.09-.11-.16-.1-.07.02-.12.08-.12.16,0,.2.02.4.02.62v.05s0,.01,0,.02c0,0,0,.01,0,.02.02.55.02,1.11.03,1.66v.18c.01,1.17,0,2.2-.04,3.16v.22c-.03.7-.09,1.45-.19,2.3-.01.1-.03.21-.04.31l-.02.16-.02.11c-.08.64-.18,1.23-.28,1.8l-.05.3c-.02.11-.05.23-.07.34l-.05.23c-.11.52-.22,1.07-.36,1.61-.23.9-.47,1.78-.73,2.64l-.02.05s-.01.04-.01.05c-.2.94-.43,1.88-.69,2.79,0,0,0,.02,0,.03l-.23.84c-.13.45-.26.91-.39,1.36-.02.07-.04.13-.06.19-.02.06-.04.11-.05.17-.02.07-.04.13-.06.19,0,0,0,0,0,0,0,0,0,0-.01.01-.33.36-.66.73-.99,1.09-.02.02-.03.05-.04.08-.07.35-.15.68-.23,1.02-.26,1.18-.57,2.39-.9,3.58-.37.87-.68,1.58-.98,2.24l-.37.82s0,0,0,.01l-.07.15c-.72,1.59-1.43,3.01-2.17,4.36-.72,1.35-1.59,2.94-2.56,4.42-.88,1.34-1.92,2.92-3.04,4.46-.01,0-.02.02-.03.03l-.14.2c-.75,1.04-1.56,2.04-2.27,2.9-.61.73-1.25,1.49-1.94,2.18-.17.2-.35.4-.53.61-.03.04-.06.08-.09.11-.03.03-.05.06-.08.09l-.11.13c-.14.18-.28.36-.45.54-.84,1.01-1.71,2.05-2.6,3.07l-.66.79c-.26.32-.53.65-.8.97-.61.75-1.28,1.48-1.93,2.18-.25.27-.5.55-.75.82-.96,1.07-2,2.06-2.91,2.9-.51.49-1.11,1.07-1.75,1.62-.61.54-1.27,1.1-2,1.71-.92.76-1.9,1.47-2.85,2.16-.31.22-.61.44-.92.67-.24.18-.48.36-.72.54l-.26.2c-.09.07-.18.13-.27.2l-.76.59c-1.04.81-2.11,1.64-3.22,2.36-.77.5-1.6.94-2.4,1.37h-.02s-.07.05-.07.05h0c-.48.26-.99.48-1.47.7-.22.1-.45.2-.67.3-.01,0-.03.01-.04.02-.89.42-1.78.84-2.67,1.25,0,0,0,0-.01,0l-.77.36c-.52.24-1.04.49-1.56.73l-.31.14c-.78.35-1.59.61-2.42.87-.54.16-1.07.33-1.61.5-.37.12-.74.23-1.12.35l-.4.13c-.86.28-1.75.57-2.64.77-.83.19-1.69.29-2.53.39h-.06c-.65.07-1.3.14-1.95.22l-.19.03c-.18.03-.35.05-.54.06-.36.02-.68-.28-.68-.64,0-.02,0-.04,0-.06,0-.05-.01-.1-.05-.13,0,0-.01,0-.02-.01.02,0,.04-.02.06-.02.03-.01.06-.04.08-.07.03-.05.06-.11.1-.15l.26-.15s.05-.03.08-.05l.05-.03c.05,0,.1,0,.17,0,.13-.01.25-.02.38-.04.01,0,.03,0,.04-.01.57-.26,1.14-.52,1.7-.79,1.83-.91,3.48-1.81,5.04-2.76,1.44-.9,2.93-1.94,4.81-3.35,0,0,.02,0,.02-.01.74-.56,1.5-1.17,2.34-1.86l.38-.31c.49-.4.99-.82,1.46-1.26.27-.25.54-.5.81-.76l.43-.41s.04-.02.06-.04c.05-.05.11-.1.17-.15l.5-.46c.83-.76,1.69-1.54,2.49-2.36.39-.4.78-.8,1.17-1.21.8-.82,1.6-1.65,2.39-2.49,1.05-1.21,2.19-2.52,3.34-3.87.29-.33.56-.69.82-1.03.13-.17.26-.34.39-.51.36-.47.73-.94,1.1-1.41l.74-.94c.34-.49.68-.98,1.01-1.47.49-.71.98-1.42,1.47-2.13.25-.38.49-.77.72-1.16l.25-.41c.2-.33.41-.66.61-.98.2-.33.41-.65.61-.99,0-.01.02-.03.02-.05.02-.02.03-.05.06-.08,1.36-2.36,2.8-4.89,4.09-7.55.53-1.2,1-2.44,1.41-3.69,0,0,0,0,0,0l.04-.12s.01-.03.02-.05c0,0-.01-.01,0-.02.14-.47.25-.94.37-1.47l.31-.56c.2-.36.41-.72.6-1.08.75-1.32,1.29-2.62,1.6-3.86,1.16,1.26,2.27,2.62,3.35,3.94l.45.56c.8.85,1.97.97,2.87.28.56-.56.85-1.24.84-2.02-.02-2.82-3.8-6.33-5.84-8.22-.25-.23-.47-.44-.67-.62-3.77-2.74-8.85-4.22-15.49-4.53-.7-.22-1.46.15-1.79.87-.17.49-.15.94.05,1.32.45.86,1.71,1.29,3.47,1.65.57.29,1.28.36,2,.41.62.14,1.03.28,1.31.44.01,0,.03.01.04.01.41.08.82.18,1.29.32-1.26,1.11-2.32,2.65-3.16,4.57-8.74,15.78-17.74,30.7-31.78,39.76-.98.55-1.98,1.11-2.98,1.68-8.31,4.71-16.91,9.58-26.09,9.35-9.6-.78-16.15-3.94-20.05-9.63l-.24-.32c-.3-.4-.64-.84-.99-1.26,3.11-.2,6.2-.81,9.18-1.8.05-.02.08-.05.1-.1.01-.05,0-.1-.03-.14-.66-.85-1.16-1.82-1.48-2.87-.26-.81-.44-1.58-.55-2.35-.07-.44-.11-.84-.12-1.22v-.09c-.02-.44,0-.9.04-1.45,0-.09.02-.19.03-.28.06-.5.13-.96.21-1.4,0,0,0-.01,0-.02.06-.33.14-.65.21-.98.51-2.14,1.79-4.25,3.92-6.46,1.58-1.63,3.61-2.83,5.58-3.27,1.09-.25,2.2.11,2.97.94.02.02.04.04.05.05.02.02.04.03.05.05.12.15.22.31.31.45.01.02.03.04.04.07.01.02.02.03.03.05.08.15.15.32.22.55,0,.02.02.05.03.07,0,.01.01.03.02.04.07.24.12.49.13.74.02.25.01.51-.02.76-.23,1.73-1.69,3.07-3.32,3.06-.03,0-.06,0-.11,0-.02,0-.06,0-.08.01l.03.15-.06-.14s-.05.01-.11.02c-.05.02-.11.04-.16.06-.05.02-.1.04-.18.07-.11.07-.21.13-.35.21-.05.04-.11.08-.19.13-.27.25-.5.47-.73.72l-.03.04c-.22.27-.44.53-.65.81l-.09.14c-.18.27-.36.54-.52.84-.15.32-.31.66-.47,1.03l-.2.7c-.04.22-.08.43-.12.64,0,.02,0,.04,0,.07l-.02.1c-.02.1-.04.2-.05.33-.02.22-.04.46-.03.69.01.36.04.71.08,1.06.04.21.09.41.13.6l.06.25c.12.39.26.78.39,1.17l.14.42.02.05s.03.08.05.1c.07.13.15.25.24.38.03.04.06.07.09.11.03.04.06.08.09.12.05.06.1.13.14.2l.07.1c.04.06.11.08.18.04,10.38-5.48,18.67-15.5,22.74-27.47.68-1.59,1.01-3.22,1-4.94l.02-.09c.08-.37.17-.76.22-1.15.37-2.64.15-5.33-.65-8.01-1.25-3.94-3.58-7.51-7.14-10.9-3.86-3.7-8.78-6.68-15.03-9.1,0,0-.03,0-.04,0-.08-.04-.17-.07-.26-.1-.07-.02-.18-.06-.31-.11-.12-.05-.25-.1-.39-.15-8.22-2.95-17.15-4.19-25.84-3.58-2.92.21-6.19.78-9.2,1.61h-.05c-.09.01-.19.02-.28.04.66-4.34,1.97-8.37,3.91-11.97.21-.3.44-.61.69-.9l.06-.07c.62-.74,1.23-1.48,1.86-2.21.1-.12.2-.24.3-.36.32-.39.65-.79,1-1.15.32-.35.65-.69.95-1.02.01,0,.02-.02.03-.02l.1-.1c.38-.4.76-.8,1.13-1.21.17-.18.34-.36.51-.54.27-.29.55-.58.83-.86.4-.37.81-.75,1.21-1.13.39-.37.79-.74,1.18-1.11l.31-.29c.36-.35.74-.71,1.13-1.04.34-.29.68-.58,1.02-.87,0,0,.02-.02.02-.03.29-.24.57-.49.86-.73.13-.11.25-.21.38-.32.1-.08.2-.16.3-.24l.23-.2c.35-.29.7-.59,1.06-.87l1.32-1.04s0,0,0,0c0,0,0,0,0,0l.42-.33c.58-.46,1.16-.92,1.74-1.37.05-.04.08-.12.05-.18-.02-.07-.09-.11-.15-.09-1.53.27-3.04.79-4.5,1.3-.66.23-1.34.46-2.02.67-5.38,1.84-10.46,4.56-15.08,8.09-1.42.98-2.72,1.9-3.87,2.72-.13.09-.26.19-.39.27,3.72-3.75,6.97-6.95,10.35-10.03,4.41-3.28,9.09-5.87,13.1-7.97.03-.01.05-.04.06-.06.34-.65.39-1.14.15-1.45-.35-.45-1.39-.8-6.33,1.19-.53-.56-1.37-.59-2.03-.06-.48.4-.96.83-1.43,1.24-.25.22-.49.44-.74.65l-.12.06c-.54.25-.93.43-1.13.51-.24.13-.47.27-.71.4,1.58-1.45,3.04-2.72,4.44-3.86.01-.01.02-.02.03-.04.31-.5,1.79-1.5,3.36-2.57,3.37-2.28,5.74-3.99,5.65-5.14-.03-.33-.25-.58-.66-.74-.02,0-.04-.01-.06,0-.62.06-4.95,2.12-8.49,4.14-2.33.76-4.93,1.61-7.54,2.24,1.47-.79,3.58-2.03,3.62-3.18.01-.41-.23-.77-.73-1.06-.05-.03-.11-.02-.15.01-3.22,2.47-7.42,4.25-12.83,5.44-.52-.1-1.24-.03-1.6.37-.15.16-.31.46-.21.93.11.5.6.82,1.04.88,0,0,0,0,0,0,2.01-.06,4.04-.23,6.03-.5-8.96,5.09-14.93,15.11-14.93,25.22-.84,1.12-1.75,2.34-2.77,3.75-.13.18-.22.38-.27.63-.68.8-.98,1.49-.91,2.09.06.46.34.85.84,1.17.03.02.06.02.09.02.79.11,1.15-.61,1.45-1.19l.05-.1s.05-.05.08-.07c.02-.02.04-.04.06-.06.81-.15,1.43-.93,1.88-1.6,1.08-.81,2.25-1.56,3.42-2.28-2.13,2.58-3.95,5.43-5.41,8.46-6.1,11.46-7.32,23.22-3.34,32.28.28,1.95.69,3.7,1.22,5.18,1.36,4.41,4.03,8.05,6.63,11.58.73.99,1.49,2.02,2.2,3.04.79,1.19,1.64,2.38,2.53,3.52.03.04.07.05.11.05.04,0,.08-.02.11-.05.04-.04.06-.09.08-.14.07-.19.12-.39.16-.57.03-.17.07-.35.09-.52.04-.44.05-.9.04-1.37-.02-.44-.05-.87-.1-1.3,0,0,0-.02,0-.03h0s0,0,0,0c0,0,0,0,0-.01,0,0,0,0,0-.01l-.02-.12s-.02,0-.02-.02c-.1-.54-.21-1.04-.34-1.53-.13-.4-.26-.78-.4-1.16l-.11-.3s-.03-.05-.04-.06h0s0,0,0,0c0-.04-.02-.07-.03-.08,0-.02-.02-.03-.02-.05,0,0,0-.02-.01-.03,0-.02-.02-.04-.03-.06-.06-.12-.12-.25-.18-.37l-.04-.08s0-.05-.02-.08l-.12-.24c-.1-.2-.2-.41-.32-.61-.09-.15-.18-.29-.28-.43-.29-.43-.56-.84-.69-1.33-.04-.14-.06-.29-.06-.44,0-.02,0-.03,0-.05,0-.02,0-.04,0-.07,0-.1,0-.21.03-.31.01-.06.03-.12.05-.17l.03-.11s.02-.08.04-.12c.04-.09.08-.17.13-.25l.03-.05s.02-.05.04-.07c.05-.08.12-.16.18-.24l.03-.04s.03-.04.04-.05c.07-.07.14-.14.22-.2l.04-.03s.04-.03.06-.05c.08-.06.16-.1.24-.14l.04-.02s.05-.03.08-.04c.08-.03.16-.06.24-.08l.06-.02c.06-.02.12-.04.18-.05.67-.09,1.37.24,1.79.85,1.19,1.49,2.19,3.4,2.97,5.66.09.27.18.53.27.8.2.66.36,1.2.48,1.72l.04.15c.5,2.12.5,4.26,0,6.18-.19.73-.51,1.44-.97,2.18-.04.06-.03.15.02.2,2.97,2.87,6.11,4.89,9.34,6.02-8.22,4.12-16.17,2.17-24.99-6.11-.44-.44-.89-.89-1.34-1.35-2.43-2.43-4.93-4.95-7.25-7.68-5.29-9.67-7.26-21.39-5.84-34.83,1.21-11.45,4.85-23.6,10.54-35.15.97-2.29,2.12-4.72,3.6-7.6,10.42-14.59,22.24-31.12,21.17-51.45v-.07c.11-.62.21-1.24.33-1.85,0-.05,0-.1-.03-.13-.32-.38-.64-.75-.96-1.13-.28-.33-.56-.67-.84-1-.14-.17-.28-.34-.42-.51-.43-.52-.86-1.05-1.28-1.58l-.28-.35c-.17-.21-.34-.42-.5-.63l-.04-.05s-.03-.04-.03-.04l-.18-.23c-.08-.11-.17-.22-.25-.33-.98-1.29-1.76-2.37-2.46-3.39-.76-1.11-1.55-2.37-2.42-3.84-.44-.74-.9-1.53-1.35-2.35l-.05-.09c-.04-.08-.08-.15-.12-.23l-.1-.19c-.47-.89-.94-1.8-1.38-2.72-.1-.21-.2-.43-.31-.65l-.05-.12c-.21-.45-.4-.9-.6-1.35l-.15-.35c-.44-1.02-.79-1.85-1.09-2.61-.13-.34-.25-.68-.38-1.02l-.12-.33c-.39-1.06-.76-2.11-1.1-3.18l-.04-.13s-.03-.1-.05-.15c-.19-.64-.38-1.28-.57-1.91,0-.02-.01-.04-.03-.05-.46-.59-.89-1.22-1.3-1.82l-.02-.02c-.05-.12-.1-.25-.14-.39-.33-.91-.7-1.93-1.46-2.13-.03-.04-.05-.09-.08-.13-.05-.07-.09-.15-.14-.22-.03-.06-.07-.13-.1-.17-.03-.04-.05-.09-.08-.13-.03-.05-.06-.1-.09-.14-.26-.46-.79-.61-1.22-.34-.21.13-.36.35-.42.61-.06.25-.03.51.09.72.05.1.11.2.17.3.04.07.08.14.12.21.01.05.03.11.04.16l.03.11c-.23.55-.18,1.17.13,1.63.2.65.44,1.34.74,2.08,1.51,5.8,3.59,11.37,6.19,16.59-5.14-6.04-10.37-12.32-14.05-19.61-.28-.75-.5-1.43-.68-2.07-3.3-12.04-4.6-30.39,2.39-43.03-.31,2.12-.42,4.3-.34,6.46-.08,2.77.31,5.09,1.19,7.06.12.41.47.65.89.61.41-.04.74-.35.83-.75.24-.31.33-.69.25-1.1.44-2.37,1.35-4.81,2.83-7.59-2.13,8.38-.55,19.48,10.7,24.87,4.5,2.53,11.27,3.61,16.47.48-.31.63-.63,1.19-.97,1.7-.9.94-2.3,2.2-4.03,2.26l-.1-.02c-.09-.08-.22-.16-.38-.21-.68-.08-.99.31-1.06.71-.04.09-.06.18-.08.28-.07.52.28,1.01.72,1.08.02.02.04.04.08.05,2.54,1.38,4.99.47,7.25-2.66,3.6-3.15,8.92-13.05,9.17-17.05,1.72-7.01-.13-15.16-4.82-21.27-3.94-5.13-9.22-7.86-14.56-7.55,1.37-1.42,2.77-2.58,4.26-3.55.34-.27.51-.65.47-1.07-.04-.46-.33-.9-.73-1.08-.36-.17-.75-.11-1.08.16-2.26,1.49-4.37,3.48-6.45,6.08-.31,0-.63.01-.96.03,2.08-2.79,4.48-5.04,7.11-6.66.64-.25,1.23-.45,1.78-.61.52-.06.91-.37,1.11-.85.22-.54.16-1.22-.16-1.69-.29-.42-.73-.61-1.27-.52-7.13,2.12-13.71,7.15-19.01,14.54-.57.54-1.15,1.13-1.77,1.81-.07.06-.13.13-.2.19.61-1.63,1.25-3.19,1.91-4.64,2.62-5.37,5.65-9.92,8.97-13.52.23-.22.33-.57.26-.92.12-.25.13-.53.05-.8-.1-.29-.3-.51-.57-.61-.04-.01-.08,0-.11,0-2.07,1.17-4.03,2.75-5.81,4.66-4.52,3.48-8.56,7.76-12,12.71-.74.79-1.48,1.62-2.21,2.47-.05-.37-.24-.69-.53-.86.32-1.01.68-2.03,1.09-3.12.7-1.85,1.59-3.78,2.65-5.72l.04-.07c.33-.6.67-1.2,1.02-1.79,0,0,0-.01,0-.02l.13-.22s.01-.02.02-.03c2.38-4.47,4.96-8.06,7.9-10.99.02,0,.04,0,.05-.01.03,0,.05-.02.07-.04.25-.28.5-.55.76-.81.23-.24.45-.48.67-.72.02-.02.03-.04.04-.07.1-.38.11-.77.02-1.15-.3-.9-.8-1.41-1.48-1.5,0,0,0,0,0,0-1.96-.26-5.5,3.13-9.45,9.06-.01.01-.03.03-.04.04-2.08,2.57-3.84,5.72-5.39,9.62-.2.43-.39.86-.57,1.26-.18-4.62.32-8.65,1.51-12.32.91-4.43,3.04-8.38,5.09-12.21,1.02-1.89,2.07-3.85,2.96-5.84,0-.02.01-.04.01-.06.09-2.86-.57-4.66-1.97-5.35-4.94-2.46-17.67,9.58-23.11,14.72-.42.39-.78.74-1.1,1.03,0-.03.02-.05.02-.08,5.6-12.77,11.24-22.42,17.73-30.34l.57-.62c1.12-1.21,2.27-2.47,3.38-3.72.92-.14,1.56-.88,1.64-1.9,1.11-1.32,2.05-2.51,2.87-3.63.01-.02.02-.03.03-.05.33-1.23.19-2.08-.44-2.52-3.25-2.28-19.03,7.95-22.73,10.78,4.16-7.26,11.27-15.69,18.3-21.68,6.29-5.36,15.47-11.39,23.96-10.25.27.04.53.08.8.13.79.21,1.63.05,2.31-.46.67-.49,1.11-1.25,1.22-2.09.11-.79-.09-1.61-.54-2.25-.45-.63-1.09-1.03-1.79-1.13,0,0-.01,0-.02,0-14.41-2.79-26.94,8.53-37.01,17.64-6.28,6.06-11.61,13.85-16.32,23.79-1.47,2.99-2.88,6.18-4.44,10.04-.53,1-.26,2.36.6,3.1.82.68,2.03.67,2.81-.02.01,0,.02-.02.03-.03,5.74-9.09,13.99-16.27,24.53-21.35-7.67,7.18-13.73,14.96-18.04,23.14-1.47-.72-3.39,0-5.68,2.13-8.15,5.84-14.89,13.72-20.6,24.09-4.5,8.18-8.3,17.77-11.96,30.18,0,0,0,0,0,0-.86,2.41-1.71,4.83-2.56,7.25-3.21,9.13-6.54,18.57-10.3,27.61-4.74,7.98-8.97,14.38-13.3,20.13-2.39,2.61-4.88,5.03-7.41,7.22,13.46-20.98,22.47-38.81,28.34-56.03,3.22-9.82,5.29-18.02,6.52-25.8.01-.08-.03-.15-.09-.17-.06-.02-.14,0-.17.08-.2.4-.39.8-.59,1.2-.14.28-.27.56-.4.83-.45.95-.92,1.92-1.46,2.83,0,0-.01.01-.02.02l-.03.04c-.75,1.27-1.56,2.53-2.34,3.76-.43.67-.93,1.39-1.57,2.24,0,0,0,0,0,.01-.13.18-.27.36-.41.54l-.12.16s-.01.01-.02.02l-.69.91c-.79,1.01-1.66,1.99-2.49,2.93l-.26.29c-.84.94-1.55,1.69-2.27,2.4-.34.45-.63.82-.9,1.16l-.09.1c-.56.63-1.07.91-1.54.86h-.09c-.09-.02-.18-.05-.3-.09-.28-.1-.5-.28-.67-.53-.25-.38-.28-.87-.31-1.39-.01-.27,0-.54,0-.82v-.13c0-.07,0-.14,0-.2.02-.36.05-.7.1-1.04.09-.61.2-1.24.32-1.87.02-.08.03-.16.05-.24.01-.06.03-.13.04-.19.09-.42.19-.85.3-1.27l.02-.1c.02-.08.04-.16.06-.24.32-1.22.79-2.43,1.24-3.59l.09-.24c.62-1.57,1.28-3.17,1.95-4.76,1.16-2.74,2.57-5.4,3.94-7.98l.21-.39s.01-.02.02-.02c.33-.63.65-1.26.97-1.89l.15-.3c.66-1.29,1.44-2.78,2.31-4.22.13-.22.26-.42.39-.64l.34-.55c.17-.29.35-.58.53-.86,0,0,0,0,0,0,.11-.17.22-.35.34-.52l.13-.2c.42-.64.77-1.17,1.15-1.68.69-.96,1.44-1.95,2.29-3.03.54-.7,1.14-1.44,1.83-2.27.08-.09.16-.19.24-.28l.16-.18c.54-.63,1.11-1.28,1.73-1.97l.38-.43c.42-.46.86-.91,1.29-1.35.22-.22.44-.44.65-.66l.37-.37s.01-.01.02-.02c.41-.42.82-.84,1.24-1.25.04-.04.05-.09.04-.15-.01-.05-.05-.1-.09-.11-.43-.16-.88-.06-1.28.28-.1.09-.19.19-.28.29-.06.06-.11.12-.17.18-2.24-.99-9.63,5.68-15.25,11.07,2.62-6.29,5.19-11.79,7.85-16.81.02-.05.03-.1.05-.15.01-.04.03-.09.03-.1.01-.02.02-.03.03-.05.15-.44.27-.77.36-1.1.02-.06.03-.12.05-.18.27-1.02.55-1.89.85-2.66.26-.66.57-1.3.87-1.93l.23-.48c.18-.38.37-.76.56-1.14l.04-.07c.32-.62.67-1.29,1.1-2.11.33-.61.69-1.21,1.05-1.8.3-.49.6-1,.89-1.52,1.28-2.25,2.85-4.32,4.21-6.04.42-.53.86-1.05,1.29-1.57.58-.71,1.19-1.44,1.77-2.17.31-.4.62-.8.93-1.2l.45-.58c.12-.15.24-.31.36-.46l.1-.13s0,0,0-.01l1.21-1.57s.03-.04.04-.05h0s0,0,0,0c0,0,0,0,0,0,0,0,0-.01.01-.02,0,0,0,0,0,0,0,0,.01-.02.02-.02,0,0,0,0,0,0h0c.47-.63.92-1.27,1.45-2.03.68-.98,1.36-2.01,2.03-3.05,0,0,0-.02.01-.03.04-.07.08-.13.12-.19l.06-.1s.01-.02.02-.04c.73-1.21,1.45-2.46,2.2-3.82l.06-.1s.05-.08.07-.12c.25-.45.49-.92.71-1.38.12-.23.24-.47.36-.7.12-.24.25-.48.37-.72.28-.53.56-1.07.83-1.62.5-1.12.91-2.14,1.25-3.1.15-.45.29-.93.44-1.51,0,0,.01-.04.01-.04,0-.01,0-.02,0-.04.09-.33.17-.66.24-.99l.05-.25c0-.06-.01-.12-.06-.15-.05-.03-.11-.03-.15,0-.17.11-.33.25-.48.43-1.61,2.89-3.43,5.76-5.53,8.77-2.08,2.23-4.17,4.14-6.37,5.83-1.72,1.19-3.41,2.4-5.02,3.6.28-1.09.57-2.2.85-3.32,3.67-14.34,7.82-30.59,16.95-40.41.43-.41.95-.88,1.51-1.31,1.15-.9,2.39-1.67,3.56-2.37,1.49-.9,2.66-1.52,3.79-2.03,2.08-.93,4.22-1.6,6.55-2.05,1.95-.38,3.94-.56,5.91-.54,2.34.04,4.32.33,6.05.89,1.23.4,2.44,1,3.69,1.81.06.04.13.03.18-.03.05-.05.05-.14.02-.19-1.44-2.26-3.51-4.21-6.15-5.79l-.19-.21c-.59-.62-1.2-1.27-1.83-1.86-2.14-2.01-4.23-3.48-6.37-4.49-2.2-1.04-4.59-1.57-6.9-1.51-2.14.04-4.31.47-6.44,1.28-4.66,1.8-9.12,5.25-13.27,10.26-3.59,4.35-6.88,9.46-10.04,15.63-2.48,4.82-4.8,10.14-7.09,16.26-1.81,4.86-3.5,9.9-5.14,15.41-.05.15-.15.47-.24.79l-.13.43c-.9,2.99-1.83,6.34-2.7,9.67-.29,1.1-.58,2.22-.88,3.34l-.18.67c-1.63,4.61-3.8,10.68-6.1,16.7-1.06,2.76-2.24,5.8-3.72,9.56l-.63,1.6c-.31.78-.64,1.56-.99,2.38,0,.01-.01.03-.01.04l-.24.55c-.21.48-.42.96-.62,1.44l-.29.69c-.51,1.2-1.04,2.44-1.61,3.63l-1.22,2.62s-.01.02-.02.03l-1.26,2.69c-.26.56-.56,1.11-.85,1.64l-.12.23c-.58,1.12-1.15,2.22-1.73,3.33-.57,1.09-1.21,2.17-1.84,3.2-.22.37-.44.74-.66,1.1-.28.46-.55.92-.83,1.38-.19.32-.38.64-.58.97-.21.36-.46.71-.7,1.06-.14.2-.28.4-.41.6-.26.37-.51.75-.76,1.13-.73,1.08-1.48,2.2-2.28,3.24-.39.5-.78,1.01-1.17,1.52-.68.88-1.38,1.79-2.09,2.69-.29.46-.58.91-.87,1.36-.35.54-.7,1.09-1.04,1.63-.63,1.01-1.33,2.01-2,2.97-.29.42-.59.84-.87,1.26-.97,1.42-2.04,2.72-3.14,4.05-.16.19-.32.37-.48.55l-.23.26c-.57.65-1.16,1.28-1.74,1.86l-.04.04c-.12.12-.25.25-.37.37-.79.76-1.5,1.41-2.2,1.97-.1.08-.2.16-.3.23l-.25.19c-.06.05-.13.1-.22.17-.05.04-.08.11-.06.18.02.07.08.1.14.1l.25.02c.53.07,1.09.12,1.76.15h.04c.24.07.5.06.84.03,2.54.01,5.17-.43,7.83-1.32.02,0,.04-.02.06-.04.34-.35.81-.52,1.26-.46,0,0,0,0,.01,0,.02,0,.05,0,.07,0,.61-.24,1.19-.51,1.79-.79-.07.25-.15.5-.22.74-.13.42-.25.85-.38,1.27,0,.02,0,.05,0,.07.07.44-.03.88-.27,1.24-.02.03-.03.06-.03.1,0,.06,0,.11-.02.19-.07,1.07-.31,2.19-.76,3.64-.32,1.02-.74,2.09-1.28,3.28-.53,1.17-1.16,2.39-1.99,3.86-1.24,2.19-2.68,4.36-4.4,6.63-.29.38-.59.76-.88,1.14-.61.77-1.18,1.47-1.74,2.13l-.18.21c-.06.07-.12.14-.18.22-.5.58-1.01,1.16-1.5,1.7l-.05.06c-.53.58-1.09,1.18-1.67,1.79l-.14.14c-.81.85-1.67,1.7-2.53,2.53l-.16.15c-.44.42-.88.84-1.33,1.25-.05.04-.07.11-.04.18.02.06.08.1.14.1,3.07-.23,6.27-.99,9.5-2.24-4.35,11.27-8.35,19.54-12.97,26.79-.5.85-1.12,1.67-1.72,2.46-1.68,2.22-3.42,4.52-2.85,7.7.01.07.03.14.05.21,0,.04.02.08.03.11v.05c-.68,3.03-.17,6.26,1.43,9.08,1.1,1.82,2.53,3.3,4.26,4.39,1.41.88,3,1.55,4.86,2.04,0,0,0,0,0,0,.13.04.27.07.4.1.02,0,.03,0,.05,0,.6.13,1.21.24,1.82.32,2.47.33,5.09.24,7.77-.27,5.05-.98,10.06-3.05,14.47-5.96,7.38-3.93,13.23-11.03,16.83-16.28,3.79-4.81,7.04-10.21,9.93-16.51.07-.15.14-.29.22-.44.1-.19.2-.39.29-.59,4.04-9.09,6.9-18.42,9.39-27.15,16.54-6.56,22.9-1.68,38.24,10.07.01,0,.02.02.04.02.17.06.36.13.57.2.2.22.43.42.62.59.56,1.3,1.68,2.19,2.77,3.05.37.29.75.59,1.1.9,3.53,10.13,10.09,17.97,17.02,26.26.95,1.13,1.9,2.27,2.82,3.38,2.77,5.8,4.94,12.51,6.46,19.96-.02.36-.07.73-.13,1.13-1.41,1.45-2.78,2.62-4.15,3.58-1.05.6-2.18,1.12-3.36,1.56-.01,0-.02,0-.03.02-.36.25-1.29.48-2.28.72-.42.1-.85.21-1.25.32-1.28.11-2.6.1-3.88.09-.29,0-.58,0-.84,0-.05-.01-.1,0-.14,0-.01,0-.02,0-.07,0-.04,0-.08,0-.12,0-.06.01-.11.03-.15.05-.08.03-.15.07-.22.13,0,0-.03.02-.03.02-.13.11-.22.22-.28.35-.14.28-.14.62,0,.92.14.29.39.49.67.53.06.03.12.05.18.07.04.01.08.03.12.05.82.72,2.87,1.09,4.73,1.37.18.18.43.28.73.29.82.2,1.66.28,2.57.26.98.08,2.02.04,3.08-.14-.65,1.18-1.31,2.35-1.97,3.51-.24.43-.49.86-.74,1.29l-.36.62c-.86.74-1.75,1.48-2.6,2.2-3.02,2.52-6.14,5.13-8.71,8.29-3.02,3.48-5.58,7.44-8.06,11.27-.46.71-.92,1.42-1.38,2.12-.11.17-.17.36-.18.6-.36.56-.72,1.13-1.07,1.69-.21.34-.22.78-.03,1.15-.04.24-.01.42.07.53.21.51.72.61,1.1.5.35-.11.68-.43.67-.93.57-.71,1.19-1.43,1.96-2.27.2-.1.36-.24.47-.42.03-.04.06-.09.08-.13.03-.04.05-.08.06-.09,1.75-1.83,3.74-3.62,6.05-5.46,0,.06,0,.12,0,.18,0,.08-.02.16-.05.27v.06s-.02.04-.02.06c-.03.14-.08.26-.13.37-.22.51-.48,1.02-.73,1.51-.12.24-.24.47-.35.71-.36.77-.75,1.54-1.13,2.29-.4.79-.82,1.61-1.2,2.42-.33.7-.63,1.4-.98,2.23,0,.01-.01.02-.02.04l-.08.2c-.13.3-.25.61-.38.91l-.75,1.81c-.08.19-.15.38-.23.57l-.23.57c-.53,1.31-1.08,2.66-1.6,3.99,0,0-.01.02-.01.03l-.07.18s0,.02,0,.03c0,.01,0,.02,0,.04h0s0,0,0,0v.04c-.13.33-.25.67-.36,1l-.14.39c-.16.46-.32.92-.47,1.39-.05.17-.1.33-.15.5-.03.12-.07.23-.1.35-.15.5-.3,1.01-.45,1.52-.04.13-.08.27-.12.4-.04.15-.09.3-.14.47,0,.02,0,.03,0,.03,0,.02-.02.04-.02.06-.37,1.52-.75,3.09-1.05,4.64-.27,1.37-.5,2.84-.73,4.62,0,0,0,0,0,0l-.04.28s0,0,0,0c0,.01,0,.03,0,.04-.01.13-.02.26-.03.39-.01.16-.02.31-.04.47-.12,1.25-.22,2.48-.3,3.66-.03.44-.06.88-.08,1.33-.07,1.22-.11,2.5-.14,3.81,0,.17-.01.33-.02.5,0,.2-.02.39-.02.6.01.9.05,1.85.11,3.09.04.77.12,1.55.2,2.3.04.34.07.68.1,1.02,0,.02,0,.03.01.05.02.09.03.18.04.27v.12s.01.04.02.05c0,.02,0,.05,0,.07,0,0,0,0,0,0h0s0,.04,0,.06c0,.02,0,.05,0,.07,0,.01,0,.02,0,.03,0,.01,0,.03,0,.04.01.08.02.16.04.24l.03.25s0,.06.01.07c0,.04,0,.06.01.08,0,.02,0,.03,0,.05v.04s.01.03.02.05c0,0,0,0,0,0,0,0,0,.01,0,.02l.09.63c.24,1.7.49,3.45.85,5.13.68,5.52,2.3,10.66,4.81,15.27.09.2.17.4.26.6l.07.16c.78,1.78,1.59,3.62,2.58,5.33.97,1.67,2.02,3.32,3.04,4.91l.26.41c.47.73.94,1.45,1.42,2.16,0,0,0,0,.01.01,0,0,0,0,0,0,0,.01.01.02.02.03.01.01.02.03.05.06h0s.01.02.02.03c0,0,.01.01.02.02l.04.04c.35.37.7.73,1.1,1.12l.11.11c.06.06.11.12.17.17.09.09.18.17.27.26l.17.16c1.3,1.25,2.69,2.44,4.12,3.52,0,.01.02.02.03.03.22.16.44.31.66.45.13.09.26.17.39.26l.46.32c.41.29.83.57,1.24.85.48.33.98.63,1.49.92,0,0,0,0,0,0,.04.02.08.04.12.06,0,0,.02,0,.03.01.04.02.07.04.11.06.01,0,.03.01.04.01,0,0,0,0,0,0,0,0,0,0,0,0,1.11.54,2.27.98,3.4,1.41l.46.17c.97.37,1.79.67,2.65.94,1.55.39,3.11.7,4.62.92.56.07,1.12.12,1.67.18l1.02.11s0,0,.01,0l.23.02c.24.02.48.04.71.07.01,0,.03,0,.04,0,.04,0,.08,0,.11,0h.1s.03.01.05.01c0,0,0,0,.02,0,.01,0,.02.01.04,0h0c.28.02.56.05.85.07l.19.02c.11.01.22.02.32.03,0,0,.01,0,.02,0,.74.06,1.46.1,2.14.11.07,0,.14,0,.21,0,.06,0,.11,0,.17,0,.57,0,1.19.01,1.81-.02,0,0,.05,0,.05,0,.04,0,.07,0,.12,0,0,0,.02,0,.03,0,0,0,.02,0,.03,0,0,0,.01,0,.02,0,.04,0,.09,0,.13-.02h.1c.75-.08,1.51-.18,2.24-.28l.41-.05-23,56.99c.23.2,6.55,3.07,6.7,3.14.13.06,8.94,4.09,9.48,4.07-4.91-23.71,5.94-44.72,14.06-60.92,2.77,4.04,6.53,7.52,11.25,10.35,1.75,7.23,5.68,15.1,11.08,22.23-2.56-.59-5-1.51-7.25-2.76-.07-.05-.15-.11-.22-.16-.1-.07-.19-.14-.29-.21-.3-.24-.6-.48-.9-.72-1.15-.92-2.34-1.88-3.44-2.9-.54-.5-1.07-1-1.61-1.51l-1.05-.99c-.53-.49-1.04-1.03-1.53-1.56l-.05-.05c-.3-.42-.55-.69-.8-.85-.62-.69-1.21-1.37-1.76-2.02-.55-.66-1.12-1.39-1.68-2.16-.01-.01-.02-.03-.03-.03-.44-.6-.78-1.08-1.08-1.53-.04-.05-.1-.08-.16-.05-.06.02-.1.08-.1.15,0,.22.03.43.09.64.85,2.21,1.89,4.4,2.81,6.25,4.39,8.76,11.3,16.27,19.46,21.15l.21.16s.02.02.03.03c.39.29.78.57,1.18.86.3.21.6.42.9.63,0,0,.01,0,.02.01,0,0,.02.02.03.02.01,0,.03.01.04.02,0,0,.01,0,.02.01,0,0,0,0,.01,0,0,0,.02.01.02.02l.95.59c.33.2.65.4.98.61.01.01.02.02.04.03.75.47,1.52.95,2.29,1.43,6.7,3.45,14.19,6.21,22.24,8.21,4.94,1.49,9.98,2.59,14.97,3.26,4.95.67,10.02.9,15.04.71.32.05.63.09.95.13,12.54,1.69,25.52.06,37.58-4.71,21.97-6.83,51.01-26.15,60.14-45.66-.07,3.25-.53,6.46-1.01,9.85-.19,1.34-.39,2.72-.56,4.11,0,.02,0,.05,0,.07.94,2.77,2.33,4.24,4.18,4.41,4.6.4,10.84-7.69,14.8-14.74,4.93-4.1,7.22-20.6,7.21-26.32.6,1.02,1.74,2.57,3.28,3.13,2.47,13.51.03,27.71-4.1,40.65-3.07,9.62-10.73,19.93-12.47,29.39,4.89,1,11.5-3.07,16.02-5.02,1.36-.59,2.73-1.2,3.94-2.06,5.95-4.23,5.18-15.51,6.74-22.12,1.57-6.62,3.1-13.25,4.65-19.87,1.67-6.99,1.86-6.66.09-12.76l-7.57-20.97c.42-5.87-.79-11.73-3.51-16.53,6.25-2.21,11.07-6.97,15.74-11.59.56-.55,1.11-1.1,1.67-1.64,1.08-.97,2.33-2.3,2.49-4.04.25-2.17-.69-4.01-2.45-4.8-1.55-.69-3.81-.47-5.35,1.57-.43.25-.86.5-1.29.76-4.81,2.83-10.25,6.04-13.8,4.14-2.07-1.11-3.35-3.82-3.9-8.27-.98-5.6-.55-11.38,1.33-18.18l.75-1.22c3.26-5.26,6.62-10.69,9.15-16.42.86-1,1.55-2.4,2.16-3.64.27-.56.53-1.09.78-1.53,4.63-7.45,5.99-17.05,4.06-28.53,1.12,2.53,2.07,5.23,2.1,7.99-.26,1.11-.08,2.28.5,3.21.57.91,1.43,1.48,2.44,1.62,0,0,.02,0,.02,0,.65.09,1.29-.03,1.92-.35,3.43.27,6.37-4.72,8.31-8.03.17-.29.33-.56.49-.83,2.6-5.07,3.2-11.29,1.84-19.01,3.81,2.4,8.42,4.05,13.69,4.93,4.93.89,10.44.76,16.81-.41.4-.06.75-.28,1-.63,1.53-.21,2.91-.51,4.21-.93.02,0,.04-.02.05-.04.96-.25,1.75-1.06,2.12-2.17.39-1.16.24-2.42-.43-3.3-2.33-2.07-5.26-3.3-8.08-4.5-1.88-.79-3.82-1.62-5.57-2.68-5.82-3.03-10.69-7.87-13.45-13.34,5.95,4.29,12.79,7.04,19.41,9.7l1.06.42c1.05.48,2.2.95,3.52,1.45,5.29,2.21,10.95,3.41,16.82,3.58,5.97.36,11.85-.21,17.48-1.69.54-.15,1.09-.3,1.63-.45,4.53-1.25,9.22-2.54,13.86-1.54.72.09,1.47.21,2.19.35,3.81,1.63,7.8,3.87,12.2,6.86.25.12.5.26.75.39.15.08.29.16.44.24l.46.46c1.39,1.4,2.84,2.84,4.25,4.13,8.52,9.52,18.96,17.02,31.01,22.27,5.75,2.53,12.04,4.06,18.69,4.52,7.63,1,15.46,1.18,23.04,1.34l1.49.03c1.5.2,3.29.06,4.8-.37,2.91,0,5.92-1.37,7.66-3.49,1.3-1.59,1.87-3.51,1.63-5.57-1.06-4.53-4.72-7.11-8.25-9.6-.7-.5-1.43-1.01-2.12-1.53-.17-.17-.34-.35-.51-.51-2.67-3.27-4.59-5.94-6.24-8.66-.18-.27-.34-.54-.51-.81l-.2-.32c-1.82-3.31-3.4-6.93-4.7-10.77,1.53.37,2.95.64,4.33.82,5.63.76,11.26.41,16.77-1.03.84-.39,1.98-.62,3.2-.87,1.39-.29,2.83-.58,4-1.15.05-.03.09-.08.09-.15,0-.06-.04-.12-.09-.14ZM452.08,374.99c.78,1.27,1.95,1.39,2.84,1.07.75,1.18,1.44,2.54,1.95,3.84.3,1.3.33,2.71.09,4.22-.84.23-1.71.68-2.55,1.12-.8.42-1.62.85-2.36,1.06-2.81.05-4.8-3.58-5.46-6.06.42-2.48,3.22-4.78,5.49-5.24ZM380.41,367.13s0,0,0,0l.58-1.58c.57.58,1.13,1.2,1.65,1.85.08.5.3.94.63,1.29.32.3.63.63.93.95l.13.14c1.38,2.2,2.58,4.73,3.64,7.73-3.67-.34-7.57-.54-11.35.12,1.29-3.92,2.53-7.36,3.79-10.5ZM409.23,402.1c-.01.18-.02.36-.02.53,0,.04,0,.07,0,.11-1.27-.86-2.5-1.59-3.49-2.18-.34-.2-.64-.38-.91-.55,0,0-.01,0-.01,0-4.45-2-9.36-3.36-14.66-4.08-2.38-.32-4.84-.51-7.38-.57-1.67-.12-3.36-.09-5.02.07-2.15.1-4.35.29-6.53.57.55-1.98,1.1-3.96,1.67-5.94,7.48-2.55,16.42-2.47,25.86.22,1.28.48,3.2,1.37,4.74,2.44.26.12.54.17.88.16.04.04.08.08.12.12.24.48.67.83,1.13.91.35.06.69-.03.98-.29.07.02.14.04.21.05.05.1.1.19.15.29.2.37.4.69.73.91.46.33,1.09.24,1.55-.22.29-.07.53-.23.73-.45-.46,2.8-.7,5.39-.72,7.9ZM410.43,381.07c-.03.14-.05.27-.07.41l-.04.21c-.06.35-.11.71-.17,1.07l-.02.11c-.03.24-.07.48-.1.72-.11.89-.19,1.81-.25,2.75-1.61-6.65-5.43-16.16-8.37-22.06,0-.02-.02-.04-.04-.05-.07-.05-.13-.11-.21-.19,0,0,0,0,0-.01l-.02-.07c-.16-.54-.31-1.05-.39-1.45-.38-1.88-1.34-3.96-2.84-3.7-.51-.33-1.06-.3-1.5.08-.02,0-.04.01-.05.03-.33.28-.56.73-.58,1.17-.01.18-.01.36-.02.53,0,.12,0,.24-.01.36-.72,2-.63,5.6-.43,8.96-3.63-3.84-7.76-6.78-12.26-8.74-.12-.06-.25-.11-.39-.14,1.73-4.57,3.69-9.39,6.3-13.8.74-1.19,1.55-2.44,2.64-4.03,1.4-1.67,3.05-3.44,5.16-5.53-1.88,4.61-3.32,9.22-4.28,13.73-.04.21-.09.43-.14.65-.24,1.09-.51,2.32-.22,3.42.13.62.46,1.11.96,1.43.54.34,1.24.44,1.87.25.04-.01.08-.05.1-.09.1-.27.21-.5.33-.72.42-.77.88-1.3,1.37-1.58.03-.02.05-.05.07-.08.24-.63.54-1.28.93-2.05.69-.56,1.22-1.45,1.67-2.82,3.15-4.61,7.63-8.2,11.97-11.67l.68-.55c-5.01,11.26-5.49,23.58-1.29,33.88.38,1.07.99,1.89,1.82,2.46-.95,2.07-1.68,4.47-2.17,7.14ZM458.13,605.89v-.1s.04.1.04.1h-.04ZM487.13,654.3s-.01-.05,0-.07c0,.02,0,.05.01.07h0ZM487.16,654.34s0,0,0,0c0,.01.02.02.03.03-.01,0-.03-.02-.04-.03ZM523.33,642.25c-9.2-3.61-16.84-8.77-22.72-15.34l.86-.22c.87-.07,1.77-.17,2.67-.29.35.02.74.02,1.15,0,5.3,5.34,11.83,9.92,19.38,13.6,2.84,1.69,5.82,3.14,8.87,4.32-3.74-.49-7.1-1.17-10.21-2.07Z"/>
    </g>
  </g>
</svg>